STARTFONT 2.3
FONT -FontForge-Monofett-Book-R-Normal--10-100-72-72-P-56-ISO10646-1
SIZE 10 72 72  4
FONTBOUNDINGBOX 7 12 0 -2
COMMENT "Generated by fontforge, http://fontforge.sourceforge.net"
COMMENT "Copyright (c) 2011 by vernon adams. All rights reserved."
STARTPROPERTIES 41
FOUNDRY "FontForge"
FAMILY_NAME "Monofett"
WEIGHT_NAME "Book"
SLANT "R"
SETWIDTH_NAME "Normal"
ADD_STYLE_NAME ""
PIXEL_SIZE 10
POINT_SIZE 100
RESOLUTION_X 72
RESOLUTION_Y 72
SPACING "P"
AVERAGE_WIDTH 56
CHARSET_REGISTRY "ISO10646"
CHARSET_ENCODING "1"
FONTNAME_REGISTRY ""
CHARSET_COLLECTIONS "ISO8859-2 ISO8859-9 ISO8859-4 ISO10646-1"
BITS_PER_PIXEL 4
FONT_NAME "Monofett"
FACE_NAME "Monofett"
COPYRIGHT "Copyright (c) 2011 by vernon adams. All rights reserved."
FONT_VERSION "1.000"
FONT_ASCENT 8
FONT_DESCENT 2
UNDERLINE_POSITION -1
UNDERLINE_THICKNESS 1
X_HEIGHT 6
CAP_HEIGHT 6
RAW_ASCENT 799
RAW_DESCENT 200
NORM_SPACE 1
RELATIVE_WEIGHT 40
RELATIVE_SETWIDTH 50
SUPERSCRIPT_X 0
SUPERSCRIPT_Y 4
SUPERSCRIPT_SIZE 6
SUBSCRIPT_X 0
SUBSCRIPT_Y 1
SUBSCRIPT_SIZE 6
FIGURE_WIDTH 6
AVG_LOWERCASE_WIDTH 60
AVG_UPPERCASE_WIDTH 60
ENDPROPERTIES
CHARS 409
STARTCHAR uni000D
ENCODING 13
SWIDTH 144 0
DWIDTH 1 0
BBX 1 1 0 0
BITMAP
00
ENDCHAR
STARTCHAR space
ENCODING 32
SWIDTH 144 0
DWIDTH 1 0
BBX 1 1 0 0
BITMAP
00
ENDCHAR
STARTCHAR exclam
ENCODING 33
SWIDTH 424 0
DWIDTH 4 0
BBX 5 7 0 0
BITMAP
287300
CD8E10
FE9F40
FFAF40
FEBF40
EFFF30
5DE800
ENDCHAR
STARTCHAR quotedbl
ENCODING 34
SWIDTH 424 0
DWIDTH 4 0
BBX 5 7 0 0
BITMAP
277300
C97E10
FFFF40
FFFF40
FFFF40
EFFF30
5DE800
ENDCHAR
STARTCHAR numbersign
ENCODING 35
SWIDTH 482 0
DWIDTH 5 0
BBX 5 7 0 0
BITMAP
28A810
CC7BA0
F94AD0
F73BD0
FBAFD0
EFFFB0
5DFD30
ENDCHAR
STARTCHAR dollar
ENCODING 36
SWIDTH 578 0
DWIDTH 6 0
BBX 6 7 0 0
BITMAP
289A71
CB55C9
F979EC
FE97AC
FB55DC
EFEEFB
5DFFC3
ENDCHAR
STARTCHAR percent
ENCODING 37
SWIDTH 578 0
DWIDTH 6 0
BBX 6 7 0 0
BITMAP
28AA71
B588F9
F78BFC
FF775C
FFBB8C
EFFFFB
5DFFC3
ENDCHAR
STARTCHAR ampersand
ENCODING 38
SWIDTH 578 0
DWIDTH 6 0
BBX 6 7 0 0
BITMAP
287771
CC7BF9
FE577C
FCAE9C
FE67CC
EFFFFB
5DFFC3
ENDCHAR
STARTCHAR quotesingle
ENCODING 39
SWIDTH 424 0
DWIDTH 4 0
BBX 5 7 0 0
BITMAP
288300
CE9E10
FFFF40
FFFF40
FFFF40
EFFF30
5DE800
ENDCHAR
STARTCHAR parenleft
ENCODING 40
SWIDTH 483 0
DWIDTH 5 0
BBX 5 7 0 0
BITMAP
286710
CA9FA0
F9DFD0
F9DFD0
FACFD0
EE9EC0
5DFD30
ENDCHAR
STARTCHAR parenright
ENCODING 41
SWIDTH 483 0
DWIDTH 5 0
BBX 5 7 0 0
BITMAP
277810
CE8CA0
FFBCD0
FFBCD0
FF9CD0
ED9FC0
5DFD30
ENDCHAR
STARTCHAR asterisk
ENCODING 42
SWIDTH 428 0
DWIDTH 4 0
BBX 5 7 0 0
BITMAP
278400
C72B20
F93D40
FFFF40
FFFF40
EFFF30
5DE800
ENDCHAR
STARTCHAR plus
ENCODING 43
SWIDTH 428 0
DWIDTH 4 0
BBX 5 7 0 0
BITMAP
288400
CA6D20
FB7E40
FFEF40
FFFF40
EFFF30
5DE800
ENDCHAR
STARTCHAR comma
ENCODING 44
SWIDTH 428 0
DWIDTH 4 0
BBX 5 7 0 0
BITMAP
289400
CFFF20
FFFF40
FFFF40
FD8F40
EFDF30
5DE800
ENDCHAR
STARTCHAR hyphen
ENCODING 45
SWIDTH 428 0
DWIDTH 4 0
BBX 5 7 0 0
BITMAP
289400
CFFF20
F97F40
FFFF40
FFFF40
EFFF30
5DE800
ENDCHAR
STARTCHAR period
ENCODING 46
SWIDTH 428 0
DWIDTH 4 0
BBX 5 7 0 0
BITMAP
289400
CFFF20
FFFF40
FFFF40
FDBF40
EFFF30
5DE800
ENDCHAR
STARTCHAR slash
ENCODING 47
SWIDTH 428 0
DWIDTH 4 0
BBX 5 7 0 0
BITMAP
289400
CF7F20
FE8F40
FCAF40
FADF40
EFFF30
5DE800
ENDCHAR
STARTCHAR zero
ENCODING 48
SWIDTH 578 0
DWIDTH 6 0
BBX 6 7 0 0
BITMAP
287661
C9AB79
F8EF7C
F8EF7C
FB77AC
EFFFFB
5DFFC3
ENDCHAR
STARTCHAR one
ENCODING 49
SWIDTH 578 0
DWIDTH 6 0
BBX 6 7 0 0
BITMAP
288971
CF8BF9
FFCBFC
FFCBFC
FFCCFC
EFFFFB
5DFFC3
ENDCHAR
STARTCHAR two
ENCODING 50
SWIDTH 578 0
DWIDTH 6 0
BBX 6 7 0 0
BITMAP
287771
CBAB89
FE989C
F9CEFC
FB78DC
EFFFFB
5DFFC3
ENDCHAR
STARTCHAR three
ENCODING 51
SWIDTH 578 0
DWIDTH 6 0
BBX 6 7 0 0
BITMAP
287771
CABA99
FF979C
FEFE8C
FA77BC
EFFFFB
5DFFC3
ENDCHAR
STARTCHAR four
ENCODING 52
SWIDTH 578 0
DWIDTH 6 0
BBX 6 7 0 0
BITMAP
289871
CCB7F9
FCB7FC
FD649C
FFF9FC
EFFFFB
5DFFC3
ENDCHAR
STARTCHAR five
ENCODING 53
SWIDTH 578 0
DWIDTH 6 0
BBX 6 7 0 0
BITMAP
287661
C9ABE9
FA67BC
FFFF7C
FC77AC
EFFFFB
5DFFC3
ENDCHAR
STARTCHAR six
ENCODING 54
SWIDTH 578 0
DWIDTH 6 0
BBX 6 7 0 0
BITMAP
287661
CA9AD9
F967AC
F9DF7C
FC779C
EFFFFB
5DFFC3
ENDCHAR
STARTCHAR seven
ENCODING 55
SWIDTH 578 0
DWIDTH 6 0
BBX 6 7 0 0
BITMAP
287671
CFB5E9
FFF7FC
FFBAFC
FF9EFC
EFFFFB
5DFFC3
ENDCHAR
STARTCHAR eight
ENCODING 56
SWIDTH 578 0
DWIDTH 6 0
BBX 6 7 0 0
BITMAP
287661
C8AB79
F9777C
F8EF7C
FB77AC
EFFFFB
5DFFC3
ENDCHAR
STARTCHAR nine
ENCODING 57
SWIDTH 578 0
DWIDTH 6 0
BBX 6 7 0 0
BITMAP
287671
C7BB79
F8AA7C
FECC7C
FE77AC
EFFFFB
5DFFC3
ENDCHAR
STARTCHAR colon
ENCODING 58
SWIDTH 428 0
DWIDTH 4 0
BBX 5 7 0 0
BITMAP
289400
CFFF20
FEDF40
FECF40
FDBF40
EFFF30
5DE800
ENDCHAR
STARTCHAR semicolon
ENCODING 59
SWIDTH 428 0
DWIDTH 4 0
BBX 5 7 0 0
BITMAP
289400
CFFF20
FFDF40
FFCF40
FD8F40
EFDF30
5DE800
ENDCHAR
STARTCHAR less
ENCODING 60
SWIDTH 482 0
DWIDTH 5 0
BBX 5 8 0 0
BITMAP
179600
BFFF80
FFBFC0
FCCFD0
FADFD0
FFAFC0
AFFF80
067500
ENDCHAR
STARTCHAR equal
ENCODING 61
SWIDTH 482 0
DWIDTH 5 0
BBX 5 8 0 0
BITMAP
179600
BFFF90
FFFFC0
FDADD0
FDADD0
FFFFC0
BFFF80
068500
ENDCHAR
STARTCHAR greater
ENCODING 62
SWIDTH 482 0
DWIDTH 5 0
BBX 5 8 0 0
BITMAP
179600
BFFF90
FECFC0
FFBDD0
FFCCD0
FEBFC0
BFFF80
068500
ENDCHAR
STARTCHAR question
ENCODING 63
SWIDTH 578 0
DWIDTH 6 0
BBX 6 7 0 0
BITMAP
288771
CEAC99
FFFB9C
FFDAFC
FFEDFC
EFFFFB
5DFFC3
ENDCHAR
STARTCHAR at
ENCODING 64
SWIDTH 578 0
DWIDTH 6 0
BBX 6 7 0 0
BITMAP
287671
C78979
DAC69A
D9659A
F7BB9C
EDAEFB
5DFFC3
ENDCHAR
STARTCHAR A
ENCODING 65
SWIDTH 578 0
DWIDTH 6 0
BBX 6 7 0 0
BITMAP
287771
CC78B9
FAAB9C
F99A7C
F9FF8C
EFFFFB
5DFFC3
ENDCHAR
STARTCHAR B
ENCODING 66
SWIDTH 578 0
DWIDTH 6 0
BBX 6 7 0 0
BITMAP
277771
C8B999
F876AC
F8FD9C
F977CC
EFFFFB
5DFFC3
ENDCHAR
STARTCHAR C
ENCODING 67
SWIDTH 578 0
DWIDTH 6 0
BBX 6 7 0 0
BITMAP
287771
C8ABF9
F8EFFC
F8EFFC
FB77EC
EFFFFB
5DFFC3
ENDCHAR
STARTCHAR D
ENCODING 68
SWIDTH 578 0
DWIDTH 6 0
BBX 6 7 0 0
BITMAP
277661
C9AB79
F9DF7C
F9DF7C
FA779C
EFFFFB
5DFFC3
ENDCHAR
STARTCHAR E
ENCODING 69
SWIDTH 578 0
DWIDTH 6 0
BBX 6 7 0 0
BITMAP
287661
CF6BE9
FF48EC
FF8FFC
FF57CC
EFFFFB
5DFFC3
ENDCHAR
STARTCHAR F
ENCODING 70
SWIDTH 578 0
DWIDTH 6 0
BBX 6 7 0 0
BITMAP
287661
CE6BE9
FE47EC
FE8FFC
FEAFFC
EFFFFB
5DFFC3
ENDCHAR
STARTCHAR G
ENCODING 71
SWIDTH 578 0
DWIDTH 6 0
BBX 6 7 0 0
BITMAP
287661
CB9BD9
FACCCC
FACC7C
FD679C
EFFFFB
5DFFC3
ENDCHAR
STARTCHAR H
ENCODING 72
SWIDTH 578 0
DWIDTH 6 0
BBX 6 7 0 0
BITMAP
27AA51
C9DF89
F9676C
F9DF8C
FAEF9C
EFFFFB
5DFFC3
ENDCHAR
STARTCHAR I
ENCODING 73
SWIDTH 578 0
DWIDTH 6 0
BBX 6 7 0 0
BITMAP
287651
CEA6D9
FFE9FC
FFE9FC
FD76BC
EFFFFB
5DFFC3
ENDCHAR
STARTCHAR J
ENCODING 74
SWIDTH 578 0
DWIDTH 6 0
BBX 6 7 0 0
BITMAP
28A871
CFF7F9
FFF7FC
FFF7FC
FF98FC
EFFFFB
5DFFC3
ENDCHAR
STARTCHAR K
ENCODING 75
SWIDTH 578 0
DWIDTH 6 0
BBX 6 7 0 0
BITMAP
288A51
CF7999
FF38FC
FF66EC
FF9E9C
EFFFFB
5DFFC3
ENDCHAR
STARTCHAR L
ENCODING 76
SWIDTH 578 0
DWIDTH 6 0
BBX 6 7 0 0
BITMAP
288A71
CF7FF9
FF7FFC
FF7FFC
FF77DC
EFFFFB
5DFFC3
ENDCHAR
STARTCHAR M
ENCODING 77
SWIDTH 578 0
DWIDTH 6 0
BBX 6 7 0 0
BITMAP
277751
C69869
F7CB7C
F7ED7C
F9FF9C
EFFFFB
5DFFC3
ENDCHAR
STARTCHAR N
ENCODING 78
SWIDTH 578 0
DWIDTH 6 0
BBX 6 7 0 0
BITMAP
277671
C9AB79
F9EF7C
F9EF7C
FAEF9C
EFFFFB
5DFFC3
ENDCHAR
STARTCHAR O
ENCODING 79
SWIDTH 578 0
DWIDTH 6 0
BBX 6 7 0 0
BITMAP
287661
C9AB79
F9EF7C
F9EF7C
FC779C
EFFFFB
5DFFC3
ENDCHAR
STARTCHAR P
ENCODING 80
SWIDTH 578 0
DWIDTH 6 0
BBX 6 7 0 0
BITMAP
287671
CD7B79
FD8C7C
FD6AEC
FDBFFC
EFFFFB
5DFFC3
ENDCHAR
STARTCHAR Q
ENCODING 81
SWIDTH 578 0
DWIDTH 6 0
BBX 6 7 0 0
BITMAP
287661
CAAB79
F9DF7C
F9DE7C
FC739C
EFFCEB
5DFFC3
ENDCHAR
STARTCHAR R
ENCODING 82
SWIDTH 578 0
DWIDTH 6 0
BBX 6 7 0 0
BITMAP
277771
CA99A9
FA88CC
FAABAC
FBDEAC
EFFFFB
5DFFC3
ENDCHAR
STARTCHAR S
ENCODING 83
SWIDTH 578 0
DWIDTH 6 0
BBX 6 7 0 0
BITMAP
287661
CB8BD9
FC68CC
FFFF7C
FE77AC
EFFFFB
5DFFC3
ENDCHAR
STARTCHAR T
ENCODING 84
SWIDTH 578 0
DWIDTH 6 0
BBX 6 7 0 0
BITMAP
287651
CEA6D9
FFE9FC
FFE9FC
FFEAFC
EFFFFB
5DFFC3
ENDCHAR
STARTCHAR U
ENCODING 85
SWIDTH 578 0
DWIDTH 6 0
BBX 6 7 0 0
BITMAP
27AA51
C8EF79
F8EF7C
F8EF7C
FB77AC
EFFFFB
5DFFC3
ENDCHAR
STARTCHAR V
ENCODING 86
SWIDTH 578 0
DWIDTH 6 0
BBX 6 7 0 0
BITMAP
27AA61
CABD89
FE7ACC
FF77FC
FFA8FC
EFFFFB
5DFFC3
ENDCHAR
STARTCHAR W
ENCODING 87
SWIDTH 578 0
DWIDTH 6 0
BBX 6 7 0 0
BITMAP
27AA61
C7AA79
F7887C
F7777C
FA899C
EFFFFB
5DFFC3
ENDCHAR
STARTCHAR X
ENCODING 88
SWIDTH 578 0
DWIDTH 6 0
BBX 6 7 0 0
BITMAP
28AA61
CD8BA9
FF85FC
FF77EC
FCBEAC
EFFFFB
5DFFC3
ENDCHAR
STARTCHAR Y
ENCODING 89
SWIDTH 578 0
DWIDTH 6 0
BBX 6 7 0 0
BITMAP
279A51
CE7AB9
FF76FC
FFC8FC
FFDBFC
EFFFFB
5DFFC3
ENDCHAR
STARTCHAR Z
ENCODING 90
SWIDTH 578 0
DWIDTH 6 0
BBX 6 7 0 0
BITMAP
287671
CFB5E9
FFD8FC
FF7FFC
FE58DC
EFFFFB
5DFFC3
ENDCHAR
STARTCHAR bracketleft
ENCODING 91
SWIDTH 484 0
DWIDTH 5 0
BBX 5 7 0 0
BITMAP
285810
CF7FA0
FF7FD0
FF7FD0
FF6FD0
EFCFC0
5DFD30
ENDCHAR
STARTCHAR backslash
ENCODING 92
SWIDTH 516 0
DWIDTH 5 0
BBX 6 7 0 0
BITMAP
288930
CF7FE1
FF7FF3
FF8EF3
FFBDF3
EFFFF2
5DFE70
ENDCHAR
STARTCHAR bracketright
ENCODING 93
SWIDTH 484 0
DWIDTH 5 0
BBX 5 7 0 0
BITMAP
286810
CF7FA0
FF7FD0
FF7FD0
FF6FD0
EFCFC0
5DFD30
ENDCHAR
STARTCHAR asciicircum
ENCODING 94
SWIDTH 355 0
DWIDTH 4 0
BBX 4 4 0 2
BITMAP
3DA0
A9D3
EDD8
6893
ENDCHAR
STARTCHAR underscore
ENCODING 95
SWIDTH 428 0
DWIDTH 4 0
BBX 5 7 0 0
BITMAP
289400
CFFF20
FFFF40
FFFF40
FCCE40
EAAE30
5DE800
ENDCHAR
STARTCHAR grave
ENCODING 96
SWIDTH 308 0
DWIDTH 3 0
BBX 3 4 0 0
BITMAP
2510
EBA0
A9E0
2DC0
ENDCHAR
STARTCHAR a
ENCODING 97
SWIDTH 578 0
DWIDTH 6 0
BBX 6 7 0 0
BITMAP
287771
CEB8B9
FEA8BC
F7C9BC
FA76CC
EFFFFB
5DFFC3
ENDCHAR
STARTCHAR b
ENCODING 98
SWIDTH 578 0
DWIDTH 6 0
BBX 6 7 0 0
BITMAP
277771
C8B999
F876AC
F8FD9C
F977CC
EFFFFB
5DFFC3
ENDCHAR
STARTCHAR c
ENCODING 99
SWIDTH 578 0
DWIDTH 6 0
BBX 6 7 0 0
BITMAP
287771
C8ABF9
F8EFFC
F8EFFC
FB77EC
EFFFFB
5DFFC3
ENDCHAR
STARTCHAR d
ENCODING 100
SWIDTH 578 0
DWIDTH 6 0
BBX 6 7 0 0
BITMAP
277661
C9AB79
F9DF7C
F9DF7C
FA779C
EFFFFB
5DFFC3
ENDCHAR
STARTCHAR e
ENCODING 101
SWIDTH 578 0
DWIDTH 6 0
BBX 6 7 0 0
BITMAP
287771
C8B8B9
F776CC
F7FFFC
FC77EC
EFFFFB
5DFFC3
ENDCHAR
STARTCHAR f
ENCODING 102
SWIDTH 578 0
DWIDTH 6 0
BBX 6 7 0 0
BITMAP
287661
CE6BE9
FE47EC
FE8FFC
FEAFFC
EFFFFB
5DFFC3
ENDCHAR
STARTCHAR g
ENCODING 103
SWIDTH 578 0
DWIDTH 6 0
BBX 6 7 0 0
BITMAP
287661
CB9BD9
FACCCC
FACC7C
FD679C
EFFFFB
5DFFC3
ENDCHAR
STARTCHAR h
ENCODING 104
SWIDTH 578 0
DWIDTH 6 0
BBX 6 7 0 0
BITMAP
27AA51
C9DF89
F9676C
F9DF8C
FAEF9C
EFFFFB
5DFFC3
ENDCHAR
STARTCHAR i
ENCODING 105
SWIDTH 578 0
DWIDTH 6 0
BBX 6 7 0 0
BITMAP
287651
CEA6D9
FFE9FC
FFE9FC
FD76BC
EFFFFB
5DFFC3
ENDCHAR
STARTCHAR j
ENCODING 106
SWIDTH 578 0
DWIDTH 6 0
BBX 6 7 0 0
BITMAP
28A871
CFF7F9
FFF7FC
FFF7FC
FF98FC
EFFFFB
5DFFC3
ENDCHAR
STARTCHAR k
ENCODING 107
SWIDTH 578 0
DWIDTH 6 0
BBX 6 7 0 0
BITMAP
288A51
CF7999
FF38FC
FF66EC
FF9E9C
EFFFFB
5DFFC3
ENDCHAR
STARTCHAR l
ENCODING 108
SWIDTH 578 0
DWIDTH 6 0
BBX 6 7 0 0
BITMAP
288A71
CF7FF9
FF7FFC
FF7FFC
FF77DC
EFFFFB
5DFFC3
ENDCHAR
STARTCHAR m
ENCODING 109
SWIDTH 578 0
DWIDTH 6 0
BBX 6 7 0 0
BITMAP
277751
C69869
F7CB7C
F7ED7C
F9FF9C
EFFFFB
5DFFC3
ENDCHAR
STARTCHAR n
ENCODING 110
SWIDTH 578 0
DWIDTH 6 0
BBX 6 7 0 0
BITMAP
277671
C9AB79
F9EF7C
F9EF7C
FAEF9C
EFFFFB
5DFFC3
ENDCHAR
STARTCHAR o
ENCODING 111
SWIDTH 578 0
DWIDTH 6 0
BBX 6 7 0 0
BITMAP
287661
C9AB79
F9EF7C
F9EF7C
FC779C
EFFFFB
5DFFC3
ENDCHAR
STARTCHAR p
ENCODING 112
SWIDTH 578 0
DWIDTH 6 0
BBX 6 7 0 0
BITMAP
287671
CD7B79
FD8C7C
FD6AEC
FDBFFC
EFFFFB
5DFFC3
ENDCHAR
STARTCHAR q
ENCODING 113
SWIDTH 578 0
DWIDTH 6 0
BBX 6 7 0 0
BITMAP
287661
CAAB79
F9DF7C
F9DE7C
FC739C
EFFCEB
5DFFC3
ENDCHAR
STARTCHAR r
ENCODING 114
SWIDTH 578 0
DWIDTH 6 0
BBX 6 7 0 0
BITMAP
277771
CA99A9
FA88CC
FAABAC
FBDEAC
EFFFFB
5DFFC3
ENDCHAR
STARTCHAR s
ENCODING 115
SWIDTH 578 0
DWIDTH 6 0
BBX 6 7 0 0
BITMAP
287661
CB8BD9
FC68CC
FFFF7C
FE77AC
EFFFFB
5DFFC3
ENDCHAR
STARTCHAR t
ENCODING 116
SWIDTH 578 0
DWIDTH 6 0
BBX 6 7 0 0
BITMAP
287651
CEA6D9
FFE9FC
FFE9FC
FFEAFC
EFFFFB
5DFFC3
ENDCHAR
STARTCHAR u
ENCODING 117
SWIDTH 578 0
DWIDTH 6 0
BBX 6 7 0 0
BITMAP
27AA51
C8EF79
F8EF7C
F8EF7C
FB77AC
EFFFFB
5DFFC3
ENDCHAR
STARTCHAR v
ENCODING 118
SWIDTH 578 0
DWIDTH 6 0
BBX 6 7 0 0
BITMAP
27AA61
CABD89
FE7ACC
FF77FC
FFA8FC
EFFFFB
5DFFC3
ENDCHAR
STARTCHAR w
ENCODING 119
SWIDTH 578 0
DWIDTH 6 0
BBX 6 7 0 0
BITMAP
27AA61
C7AA79
F7887C
F7777C
FA899C
EFFFFB
5DFFC3
ENDCHAR
STARTCHAR x
ENCODING 120
SWIDTH 578 0
DWIDTH 6 0
BBX 6 7 0 0
BITMAP
28AA61
CD8BA9
FF85FC
FF77EC
FCBEAC
EFFFFB
5DFFC3
ENDCHAR
STARTCHAR y
ENCODING 121
SWIDTH 578 0
DWIDTH 6 0
BBX 6 7 0 0
BITMAP
279A51
CE7AB9
FF76FC
FFC8FC
FFDBFC
EFFFFB
5DFFC3
ENDCHAR
STARTCHAR z
ENCODING 122
SWIDTH 578 0
DWIDTH 6 0
BBX 6 7 0 0
BITMAP
287671
CFB5E9
FFD8FC
FF7FFC
FE58DC
EFFFFB
5DFFC3
ENDCHAR
STARTCHAR braceleft
ENCODING 123
SWIDTH 484 0
DWIDTH 5 0
BBX 5 7 0 0
BITMAP
285610
CC9EA0
E8BFD0
E9BFD0
FC8ED0
EFBEC0
5DFD30
ENDCHAR
STARTCHAR bar
ENCODING 124
SWIDTH 484 0
DWIDTH 5 0
BBX 5 7 0 0
BITMAP
286810
CF9FA0
FF9FD0
FF9FD0
FF9FD0
EFEFC0
5DFD30
ENDCHAR
STARTCHAR braceright
ENCODING 125
SWIDTH 484 0
DWIDTH 5 0
BBX 5 7 0 0
BITMAP
266810
CE7EA0
FF99D0
FF9AD0
FE6ED0
EDCFC0
5DFD30
ENDCHAR
STARTCHAR asciitilde
ENCODING 126
SWIDTH 578 0
DWIDTH 6 0
BBX 6 7 0 0
BITMAP
28AA71
CFEFE9
FA87CC
FFFFFC
FFFFFC
EFFFFB
5DFFC3
ENDCHAR
STARTCHAR uni00A0
ENCODING 160
SWIDTH 151 0
DWIDTH 2 0
BBX 1 1 0 0
BITMAP
00
ENDCHAR
STARTCHAR exclamdown
ENCODING 161
SWIDTH 424 0
DWIDTH 4 0
BBX 5 7 0 0
BITMAP
288300
CFBE10
FF9F40
FF9F40
FFAF40
EFFF30
5DE800
ENDCHAR
STARTCHAR cent
ENCODING 162
SWIDTH 578 0
DWIDTH 6 0
BBX 6 7 0 0
BITMAP
289971
CE56F9
FC8CFC
FC8CFC
FE66FC
EFEEFB
5DFFC3
ENDCHAR
STARTCHAR sterling
ENCODING 163
SWIDTH 578 0
DWIDTH 6 0
BBX 6 7 0 0
BITMAP
288771
CF67E9
FE5BFC
FF7EFC
FF67EC
EFFFFB
5DFFC3
ENDCHAR
STARTCHAR currency
ENCODING 164
SWIDTH 578 0
DWIDTH 6 0
BBX 6 7 0 0
BITMAP
28AA71
CC67A9
FEACBC
FC67AC
FFFFFC
EFFFFB
5DFFC3
ENDCHAR
STARTCHAR yen
ENCODING 165
SWIDTH 578 0
DWIDTH 6 0
BBX 6 7 0 0
BITMAP
27A961
CBA8D9
FF67FC
FF34FC
FFABFC
EFFFFB
5DFFC3
ENDCHAR
STARTCHAR brokenbar
ENCODING 166
SWIDTH 484 0
DWIDTH 5 0
BBX 5 7 0 0
BITMAP
288810
CF7FA0
FFCFD0
FF7FD0
FF9FD0
EFFFC0
5DFD30
ENDCHAR
STARTCHAR section
ENCODING 167
SWIDTH 578 0
DWIDTH 6 0
BBX 6 7 0 0
BITMAP
288771
CC9CE9
FE68FC
FF86EC
FEDACC
EEBCFB
5DFFC3
ENDCHAR
STARTCHAR dieresis
ENCODING 168
SWIDTH 388 0
DWIDTH 4 0
BBX 4 3 0 0
BITMAP
5CC4
EA9D
9CC7
ENDCHAR
STARTCHAR copyright
ENCODING 169
SWIDTH 578 0
DWIDTH 6 0
BBX 6 7 0 0
BITMAP
288871
C98899
CDAFD9
CDAFD8
F9999C
EFBBFB
5DFFC3
ENDCHAR
STARTCHAR ordfeminine
ENCODING 170
SWIDTH 578 0
DWIDTH 6 0
BBX 6 7 0 0
BITMAP
287771
CFB8B9
FE65BC
FD66CC
FFEEFC
EFFFFB
5DFFC3
ENDCHAR
STARTCHAR guillemotleft
ENCODING 171
SWIDTH 578 0
DWIDTH 6 0
BBX 6 7 0 0
BITMAP
28AA71
CFBBF9
FCABFC
FBACFC
FFAAFC
EFFFFB
5DFFC3
ENDCHAR
STARTCHAR uni00AD
ENCODING 173
SWIDTH 428 0
DWIDTH 4 0
BBX 5 7 0 0
BITMAP
289400
CFFF20
F97F40
FFFF40
FFFF40
EFFF30
5DE800
ENDCHAR
STARTCHAR registered
ENCODING 174
SWIDTH 578 0
DWIDTH 6 0
BBX 6 7 0 0
BITMAP
288871
C97899
CD99D9
CD88D8
F9BC9C
EFBBFB
5DFFC3
ENDCHAR
STARTCHAR macron
ENCODING 175
SWIDTH 428 0
DWIDTH 4 0
BBX 5 3 0 0
BITMAP
5CD800
E87F30
AFFD10
ENDCHAR
STARTCHAR degree
ENCODING 176
SWIDTH 428 0
DWIDTH 4 0
BBX 5 7 0 0
BITMAP
277400
C87E20
FB9F40
FFFF40
FFFF40
EFFF30
5DE800
ENDCHAR
STARTCHAR plusminus
ENCODING 177
SWIDTH 428 0
DWIDTH 4 0
BBX 5 7 0 0
BITMAP
288400
CA6D20
FB7E40
FA7F40
FEEF40
EFFF30
5DE800
ENDCHAR
STARTCHAR uni00B2
ENCODING 178
SWIDTH 578 0
DWIDTH 6 0
BBX 6 7 0 0
BITMAP
288871
CF84F9
FE4AFC
FFAAFC
FFFFFC
EFFFFB
5DFFC3
ENDCHAR
STARTCHAR uni00B3
ENCODING 179
SWIDTH 578 0
DWIDTH 6 0
BBX 6 7 0 0
BITMAP
288771
CF96B9
FFA7BC
FFBAEC
FFFFFC
EFFFFB
5DFFC3
ENDCHAR
STARTCHAR acute
ENCODING 180
SWIDTH 308 0
DWIDTH 3 0
BBX 4 4 0 0
BITMAP
1520
9BF1
E8B0
BD30
ENDCHAR
STARTCHAR uni00B5
ENCODING 181
SWIDTH 578 0
DWIDTH 6 0
BBX 6 7 0 0
BITMAP
27AA61
C8FF89
F8FF8C
F7FF8C
F777BC
ECFFFB
5DFFC3
ENDCHAR
STARTCHAR paragraph
ENCODING 182
SWIDTH 578 0
DWIDTH 6 0
BBX 6 7 0 0
BITMAP
288871
C906C9
FA17CC
FFF8CC
FFFBDC
EFFFFB
5DFFC3
ENDCHAR
STARTCHAR periodcentered
ENCODING 183
SWIDTH 428 0
DWIDTH 4 0
BBX 5 7 0 0
BITMAP
289400
CFFF20
FDBF40
FFFF40
FFFF40
EFFF30
5DE800
ENDCHAR
STARTCHAR cedilla
ENCODING 184
SWIDTH 101 0
DWIDTH 1 0
BBX 1 2 0 -2
BITMAP
90
60
ENDCHAR
STARTCHAR uni00B9
ENCODING 185
SWIDTH 578 0
DWIDTH 6 0
BBX 6 7 0 0
BITMAP
288971
CF8BF9
FFCBFC
FFEDFC
FFFFFC
EFFFFB
5DFFC3
ENDCHAR
STARTCHAR ordmasculine
ENCODING 186
SWIDTH 578 0
DWIDTH 6 0
BBX 6 7 0 0
BITMAP
287671
CC7B79
FCBF7C
FD688C
FFEEFC
EFFFFB
5DFFC3
ENDCHAR
STARTCHAR guillemotright
ENCODING 187
SWIDTH 578 0
DWIDTH 6 0
BBX 6 7 0 0
BITMAP
28AA71
CDCCF9
FF9AEC
FFAADC
FDBAFC
EFFFFB
5DFFC3
ENDCHAR
STARTCHAR onequarter
ENCODING 188
SWIDTH 578 0
DWIDTH 6 0
BBX 6 7 0 0
BITMAP
259971
B59DF9
F77BBC
FC777C
FEAA48
EFFFDB
5DFFC3
ENDCHAR
STARTCHAR onehalf
ENCODING 189
SWIDTH 578 0
DWIDTH 6 0
BBX 6 7 0 0
BITMAP
259971
B59DF9
F7786A
FC787A
FEA77C
EFFFFB
5DFFC3
ENDCHAR
STARTCHAR threequarters
ENCODING 190
SWIDTH 578 0
DWIDTH 6 0
BBX 6 7 0 0
BITMAP
259971
B59DF9
F77878
FC7E76
FEA778
EFFFFB
5DFFC3
ENDCHAR
STARTCHAR questiondown
ENCODING 191
SWIDTH 578 0
DWIDTH 6 0
BBX 6 7 0 0
BITMAP
28A871
CFFAF9
FE8AFC
FCCFEC
FE88CC
EFFFFB
5DFFC3
ENDCHAR
STARTCHAR Agrave
ENCODING 192
SWIDTH 578 0
DWIDTH 6 0
BBX 6 10 0 0
BITMAP
025100
0FB900
0B9E00
2BFF71
CC78B9
FAAB9C
F99A7C
F9FF8C
EFFFFB
5DFFC3
ENDCHAR
STARTCHAR Aacute
ENCODING 193
SWIDTH 578 0
DWIDTH 6 0
BBX 6 10 0 0
BITMAP
002510
00CBC0
01E980
2AFF81
CC78B9
FAAB9C
F99A7C
F9FF8C
EFFFFB
5DFFC3
ENDCHAR
STARTCHAR Acircumflex
ENCODING 194
SWIDTH 578 0
DWIDTH 6 0
BBX 6 10 0 0
BITMAP
006700
04CC40
0AAAA0
2FFFF1
CC78B9
FAAB9C
F99A7C
F9FF8C
EFFFFB
5DFFC3
ENDCHAR
STARTCHAR Atilde
ENCODING 195
SWIDTH 578 0
DWIDTH 6 0
BBX 6 10 0 0
BITMAP
002200
09FFA0
1FBCF2
2FFFF1
CC78B9
FAAB9C
F99A7C
F9FF8C
EFFFFB
5DFFC3
ENDCHAR
STARTCHAR Adieresis
ENCODING 196
SWIDTH 578 0
DWIDTH 6 0
BBX 6 9 0 0
BITMAP
04CC50
0D99E0
2FFFF1
CC78B9
FAAB9C
F99A7C
F9FF8C
EFFFFB
5DFFC3
ENDCHAR
STARTCHAR Aring
ENCODING 197
SWIDTH 578 0
DWIDTH 6 0
BBX 6 9 0 0
BITMAP
05DD50
0C88C0
2FFFF1
CC78B9
FAAB9C
F99A7C
F9FF8C
EFFFFB
5DFFC3
ENDCHAR
STARTCHAR AE
ENCODING 198
SWIDTH 578 0
DWIDTH 6 0
BBX 6 7 0 0
BITMAP
287651
C988D9
F7C5AC
F67AFC
F9B6AC
EFFFFB
5DFFC3
ENDCHAR
STARTCHAR Ccedilla
ENCODING 199
SWIDTH 578 0
DWIDTH 6 0
BBX 6 7 0 0
BITMAP
287771
C8ABF9
F8EFFC
F8EFFC
FB66EC
EF6DFB
5DCEC3
ENDCHAR
STARTCHAR Egrave
ENCODING 200
SWIDTH 578 0
DWIDTH 6 0
BBX 6 10 0 0
BITMAP
025100
0DBB00
099E10
2AFF71
CF6BE9
FF48EC
FF8FFC
FF57CC
EFFFFB
5DFFC3
ENDCHAR
STARTCHAR Eacute
ENCODING 201
SWIDTH 578 0
DWIDTH 6 0
BBX 6 10 0 0
BITMAP
001520
00ABE0
00E9A0
29FF81
CF6BE9
FF48EC
FF8FFC
FF57CC
EFFFFB
5DFFC3
ENDCHAR
STARTCHAR Ecircumflex
ENCODING 202
SWIDTH 578 0
DWIDTH 6 0
BBX 6 10 0 0
BITMAP
005700
02DC60
08AAC0
2FFFF1
CF6BE9
FF48EC
FF8FFC
FF57CC
EFFFFB
5DFFC3
ENDCHAR
STARTCHAR Edieresis
ENCODING 203
SWIDTH 578 0
DWIDTH 6 0
BBX 6 9 0 0
BITMAP
03BC60
0B9AE1
2EFFF1
CF6BE9
FF48EC
FF8FFC
FF57CC
EFFFFB
5DFFC3
ENDCHAR
STARTCHAR Igrave
ENCODING 204
SWIDTH 578 0
DWIDTH 6 0
BBX 6 10 0 0
BITMAP
025200
0DBB00
099E10
29FF61
CEA6D9
FFE9FC
FFE9FC
FD76BC
EFFFFB
5DFFC3
ENDCHAR
STARTCHAR Iacute
ENCODING 205
SWIDTH 578 0
DWIDTH 6 0
BBX 6 10 0 0
BITMAP
001520
00ABE0
00E9B0
28FF71
CEA6D9
FFE9FC
FFE9FC
FD76BC
EFFFFB
5DFFC3
ENDCHAR
STARTCHAR Icircumflex
ENCODING 206
SWIDTH 578 0
DWIDTH 6 0
BBX 6 10 0 0
BITMAP
005700
02DB60
08A9C0
2EFFF1
CEA6D9
FFE9FC
FFE9FC
FD76BC
EFFFFB
5DFFC3
ENDCHAR
STARTCHAR Idieresis
ENCODING 207
SWIDTH 578 0
DWIDTH 6 0
BBX 6 9 0 0
BITMAP
03BC60
0B9AE1
2DFFF1
CEA6D9
FFE9FC
FFE9FC
FD76BC
EFFFFB
5DFFC3
ENDCHAR
STARTCHAR Eth
ENCODING 208
SWIDTH 578 0
DWIDTH 6 0
BBX 6 7 0 0
BITMAP
277661
C9AB79
F7BF7C
F9DF7C
FA779C
EFFFFB
5DFFC3
ENDCHAR
STARTCHAR Ntilde
ENCODING 209
SWIDTH 578 0
DWIDTH 6 0
BBX 6 10 0 0
BITMAP
002200
0BFF90
2FBCF1
2FFFF1
C9AB79
F9EF7C
F9EF7C
FAEF9C
EFFFFB
5DFFC3
ENDCHAR
STARTCHAR Ograve
ENCODING 210
SWIDTH 578 0
DWIDTH 6 0
BBX 6 10 0 0
BITMAP
025100
0EBA00
0A9E00
2AFF71
C9AB79
F9EF7C
F9EF7C
FC779C
EFFFFB
5DFFC3
ENDCHAR
STARTCHAR Oacute
ENCODING 211
SWIDTH 578 0
DWIDTH 6 0
BBX 6 10 0 0
BITMAP
001520
00BBD0
01E990
29FF81
C9AB79
F9EF7C
F9EF7C
FC779C
EFFFFB
5DFFC3
ENDCHAR
STARTCHAR Ocircumflex
ENCODING 212
SWIDTH 578 0
DWIDTH 6 0
BBX 6 10 0 0
BITMAP
005700
03DC60
09AAB0
2FFFF1
C9AB79
F9EF7C
F9EF7C
FC779C
EFFFFB
5DFFC3
ENDCHAR
STARTCHAR Otilde
ENCODING 213
SWIDTH 578 0
DWIDTH 6 0
BBX 6 10 0 0
BITMAP
002200
08FFB0
0FBCE3
2FFFF2
C9AB79
F9EF7C
F9EF7C
FC779C
EFFFFB
5DFFC3
ENDCHAR
STARTCHAR Odieresis
ENCODING 214
SWIDTH 578 0
DWIDTH 6 0
BBX 6 9 0 0
BITMAP
04BC60
0C99F0
2FFFF1
C9AB79
F9EF7C
F9EF7C
FC779C
EFFFFB
5DFFC3
ENDCHAR
STARTCHAR multiply
ENCODING 215
SWIDTH 578 0
DWIDTH 6 0
BBX 6 7 0 0
BITMAP
28AA71
CFEEF9
FF87FC
FFBAFC
FFFFFC
EFFFFB
5DFFC3
ENDCHAR
STARTCHAR Oslash
ENCODING 216
SWIDTH 578 0
DWIDTH 6 0
BBX 6 7 0 0
BITMAP
287661
C8A679
F8D97C
F86F7C
FB67AC
EFFFFB
5DFFC3
ENDCHAR
STARTCHAR Ugrave
ENCODING 217
SWIDTH 578 0
DWIDTH 6 0
BBX 6 10 0 0
BITMAP
025100
0DBB00
099E10
28FF61
C8EF79
F8EF7C
F8EF7C
FB77AC
EFFFFB
5DFFC3
ENDCHAR
STARTCHAR Uacute
ENCODING 218
SWIDTH 578 0
DWIDTH 6 0
BBX 6 10 0 0
BITMAP
001520
00ABE0
00E9A0
27FF71
C8EF79
F8EF7C
F8EF7C
FB77AC
EFFFFB
5DFFC3
ENDCHAR
STARTCHAR Ucircumflex
ENCODING 219
SWIDTH 578 0
DWIDTH 6 0
BBX 6 10 0 0
BITMAP
005700
02DC60
08AAC0
2EFFF1
C8EF79
F8EF7C
F8EF7C
FB77AC
EFFFFB
5DFFC3
ENDCHAR
STARTCHAR Udieresis
ENCODING 220
SWIDTH 578 0
DWIDTH 6 0
BBX 6 9 0 0
BITMAP
03BC60
0B9AE1
2DFFF1
C8EF79
F8EF7C
F8EF7C
FB77AC
EFFFFB
5DFFC3
ENDCHAR
STARTCHAR Yacute
ENCODING 221
SWIDTH 578 0
DWIDTH 6 0
BBX 6 10 0 0
BITMAP
001520
00BBE0
01E9A0
28FF71
CE7AB9
FF76FC
FFC8FC
FFDBFC
EFFFFB
5DFFC3
ENDCHAR
STARTCHAR Thorn
ENCODING 222
SWIDTH 578 0
DWIDTH 6 0
BBX 6 7 0 0
BITMAP
288A71
CD57C9
FDAF7C
FD57BC
FDBFFC
EFFFFB
5DFFC3
ENDCHAR
STARTCHAR germandbls
ENCODING 223
SWIDTH 578 0
DWIDTH 6 0
BBX 6 7 0 0
BITMAP
287771
C9A9A9
F8E8BC
F8EF7C
FAC7AC
EFFFFB
5DFFC3
ENDCHAR
STARTCHAR agrave
ENCODING 224
SWIDTH 578 0
DWIDTH 6 0
BBX 6 10 0 0
BITMAP
025100
0EBB00
0A9E00
29FF81
CEB8B9
FEA8BC
F7C9BC
FA76CC
EFFFFB
5DFFC3
ENDCHAR
STARTCHAR aacute
ENCODING 225
SWIDTH 578 0
DWIDTH 6 0
BBX 6 10 0 0
BITMAP
001520
00ABE0
00E9A0
28FF91
CEB8B9
FEA8BC
F7C9BC
FA76CC
EFFFFB
5DFFC3
ENDCHAR
STARTCHAR acircumflex
ENCODING 226
SWIDTH 578 0
DWIDTH 6 0
BBX 6 10 0 0
BITMAP
005700
03DC60
08AAC0
2FFFF1
CEB8B9
FEA8BC
F7C9BC
FA76CC
EFFFFB
5DFFC3
ENDCHAR
STARTCHAR atilde
ENCODING 227
SWIDTH 578 0
DWIDTH 6 0
BBX 6 10 0 0
BITMAP
002200
08FFB0
0FBCE3
2FFFF2
CEB8B9
FEA8BC
F7C9BC
FA76CC
EFFFFB
5DFFC3
ENDCHAR
STARTCHAR adieresis
ENCODING 228
SWIDTH 578 0
DWIDTH 6 0
BBX 6 9 0 0
BITMAP
04BC60
0C99E0
2EFFF1
CEB8B9
FEA8BC
F7C9BC
FA76CC
EFFFFB
5DFFC3
ENDCHAR
STARTCHAR aring
ENCODING 229
SWIDTH 578 0
DWIDTH 6 0
BBX 6 10 0 0
BITMAP
000100
04DD60
0B87D0
2FFFF1
CEB8B9
FEA8BC
F7C9BC
FA76CC
EFFFFB
5DFFC3
ENDCHAR
STARTCHAR ae
ENCODING 230
SWIDTH 578 0
DWIDTH 6 0
BBX 6 7 0 0
BITMAP
287651
C988D9
F7C5AC
F67AFC
F9B6AC
EFFFFB
5DFFC3
ENDCHAR
STARTCHAR ccedilla
ENCODING 231
SWIDTH 578 0
DWIDTH 6 0
BBX 6 7 0 0
BITMAP
287771
C8ABF9
F8EFFC
F8EFFC
FB67EC
EF6EFB
5DCEC3
ENDCHAR
STARTCHAR egrave
ENCODING 232
SWIDTH 578 0
DWIDTH 6 0
BBX 6 10 0 0
BITMAP
025100
0EBA00
0A9E00
2AFF81
C8B8B9
F776CC
F7FFFC
FC77EC
EFFFFB
5DFFC3
ENDCHAR
STARTCHAR eacute
ENCODING 233
SWIDTH 578 0
DWIDTH 6 0
BBX 6 10 0 0
BITMAP
002510
00DBC0
02DA80
2AFF81
C8B8B9
F776CC
F7FFFC
FC77EC
EFFFFB
5DFFC3
ENDCHAR
STARTCHAR ecircumflex
ENCODING 234
SWIDTH 578 0
DWIDTH 6 0
BBX 6 10 0 0
BITMAP
007600
06CD30
0BAA90
2FFFE1
C8B8B9
F776CC
F7FFFC
FC77EC
EFFFFB
5DFFC3
ENDCHAR
STARTCHAR edieresis
ENCODING 235
SWIDTH 578 0
DWIDTH 6 0
BBX 6 9 0 0
BITMAP
06CB30
1EA9B0
2FFFD1
C8B8B9
F776CC
F7FFFC
FC77EC
EFFFFB
5DFFC3
ENDCHAR
STARTCHAR igrave
ENCODING 236
SWIDTH 578 0
DWIDTH 6 0
BBX 6 10 0 0
BITMAP
025100
0DBB00
099E10
29FF61
CEA6D9
FFE9FC
FFE9FC
FD76BC
EFFFFB
5DFFC3
ENDCHAR
STARTCHAR iacute
ENCODING 237
SWIDTH 578 0
DWIDTH 6 0
BBX 6 10 0 0
BITMAP
001520
00ABE0
00E9A0
28FF71
CEA6D9
FFE9FC
FFE9FC
FD76BC
EFFFFB
5DFFC3
ENDCHAR
STARTCHAR icircumflex
ENCODING 238
SWIDTH 578 0
DWIDTH 6 0
BBX 6 10 0 0
BITMAP
005700
02DC60
08AAC0
2FFFF1
CEA6D9
FFE9FC
FFE9FC
FD76BC
EFFFFB
5DFFC3
ENDCHAR
STARTCHAR idieresis
ENCODING 239
SWIDTH 578 0
DWIDTH 6 0
BBX 6 9 0 0
BITMAP
03BC60
0B9AE1
2DFFF1
CEA6D9
FFE9FC
FFE9FC
FD76BC
EFFFFB
5DFFC3
ENDCHAR
STARTCHAR eth
ENCODING 240
SWIDTH 578 0
DWIDTH 6 0
BBX 6 7 0 0
BITMAP
277661
C9AB79
F7BF7C
F9DF7C
FA779C
EFFFFB
5DFFC3
ENDCHAR
STARTCHAR ntilde
ENCODING 241
SWIDTH 578 0
DWIDTH 6 0
BBX 6 10 0 0
BITMAP
002200
0BFF90
2FBCF1
2FFFF1
C9AB79
F9EF7C
F9EF7C
FAEF9C
EFFFFB
5DFFC3
ENDCHAR
STARTCHAR oacute
ENCODING 243
SWIDTH 578 0
DWIDTH 6 0
BBX 6 10 0 0
BITMAP
002510
00CBC0
02EA80
2AFF71
C9AB79
F9EF7C
F9EF7C
FC779C
EFFFFB
5DFFC3
ENDCHAR
STARTCHAR ocircumflex
ENCODING 244
SWIDTH 578 0
DWIDTH 6 0
BBX 6 10 0 0
BITMAP
005700
03DC60
08AAC0
2FFFF1
C9AB79
F9EF7C
F9EF7C
FC779C
EFFFFB
5DFFC3
ENDCHAR
STARTCHAR otilde
ENCODING 245
SWIDTH 578 0
DWIDTH 6 0
BBX 6 10 0 0
BITMAP
002200
09FFB0
0FBCF3
2FFFF1
C9AB79
F9EF7C
F9EF7C
FC779C
EFFFFB
5DFFC3
ENDCHAR
STARTCHAR odieresis
ENCODING 246
SWIDTH 578 0
DWIDTH 6 0
BBX 6 9 0 0
BITMAP
03BC60
0B9AE1
2EFFF1
C9AB79
F9EF7C
F9EF7C
FC779C
EFFFFB
5DFFC3
ENDCHAR
STARTCHAR divide
ENCODING 247
SWIDTH 428 0
DWIDTH 4 0
BBX 5 7 0 0
BITMAP
289400
CDAF20
F86F40
FECF40
FFFF40
EFFF30
5DE800
ENDCHAR
STARTCHAR oslash
ENCODING 248
SWIDTH 578 0
DWIDTH 6 0
BBX 6 7 0 0
BITMAP
287661
C8A679
F8D97C
F86F7C
FB67AC
EFFFFB
5DFFC3
ENDCHAR
STARTCHAR ugrave
ENCODING 249
SWIDTH 578 0
DWIDTH 6 0
BBX 6 10 0 0
BITMAP
025100
0DBB00
099E10
28FF61
C8EF79
F8EF7C
F8EF7C
FB77AC
EFFFFB
5DFFC3
ENDCHAR
STARTCHAR uacute
ENCODING 250
SWIDTH 578 0
DWIDTH 6 0
BBX 6 10 0 0
BITMAP
001520
00ABE0
00E9A0
27FF71
C8EF79
F8EF7C
F8EF7C
FB77AC
EFFFFB
5DFFC3
ENDCHAR
STARTCHAR ucircumflex
ENCODING 251
SWIDTH 578 0
DWIDTH 6 0
BBX 6 10 0 0
BITMAP
005700
02DC60
08AAC0
2EFFF1
C8EF79
F8EF7C
F8EF7C
FB77AC
EFFFFB
5DFFC3
ENDCHAR
STARTCHAR udieresis
ENCODING 252
SWIDTH 578 0
DWIDTH 6 0
BBX 6 9 0 0
BITMAP
03BC60
0B9AE1
2DFFF1
C8EF79
F8EF7C
F8EF7C
FB77AC
EFFFFB
5DFFC3
ENDCHAR
STARTCHAR yacute
ENCODING 253
SWIDTH 578 0
DWIDTH 6 0
BBX 6 10 0 0
BITMAP
001520
00BBE0
01E9A0
28FF71
CE7AB9
FF76FC
FFC8FC
FFDBFC
EFFFFB
5DFFC3
ENDCHAR
STARTCHAR thorn
ENCODING 254
SWIDTH 578 0
DWIDTH 6 0
BBX 6 7 0 0
BITMAP
288A71
CD57C9
FDAF7C
FD57BC
FDBFFC
EFFFFB
5DFFC3
ENDCHAR
STARTCHAR ydieresis
ENCODING 255
SWIDTH 578 0
DWIDTH 6 0
BBX 6 9 0 0
BITMAP
04BC60
0C99E0
2EFFF1
CE7AB9
FF76FC
FFC8FC
FFDBFC
EFFFFB
5DFFC3
ENDCHAR
STARTCHAR Amacron
ENCODING 256
SWIDTH 578 0
DWIDTH 6 0
BBX 6 9 0 0
BITMAP
06DD70
1F88F2
2FFFF1
CC78B9
FAAB9C
F99A7C
F9FF8C
EFFFFB
5DFFC3
ENDCHAR
STARTCHAR amacron
ENCODING 257
SWIDTH 578 0
DWIDTH 6 0
BBX 6 9 0 0
BITMAP
05CD80
0E87F3
2FFFF2
CEB8B9
FEA8BC
F7C9BC
FA76CC
EFFFFB
5DFFC3
ENDCHAR
STARTCHAR Abreve
ENCODING 258
SWIDTH 578 0
DWIDTH 6 0
BBX 6 9 0 0
BITMAP
06DD70
1FCBF2
2FFFF1
CC78B9
FAAB9C
F99A7C
F9FF8C
EFFFFB
5DFFC3
ENDCHAR
STARTCHAR abreve
ENCODING 259
SWIDTH 578 0
DWIDTH 6 0
BBX 6 9 0 0
BITMAP
05CD80
0ECBF3
2FFFF2
CEB8B9
FEA8BC
F7C9BC
FA76CC
EFFFFB
5DFFC3
ENDCHAR
STARTCHAR Aogonek
ENCODING 260
SWIDTH 578 0
DWIDTH 6 0
BBX 6 7 0 0
BITMAP
287771
CC78B9
FAAB9C
F99A7C
F9FF7C
EFFACB
5DFE93
ENDCHAR
STARTCHAR aogonek
ENCODING 261
SWIDTH 578 0
DWIDTH 6 0
BBX 6 7 0 0
BITMAP
287771
CEB8B9
FEA8BC
F7C9BC
FA75CC
EF8EFB
5DDDC3
ENDCHAR
STARTCHAR Cacute
ENCODING 262
SWIDTH 578 0
DWIDTH 6 0
BBX 6 10 0 0
BITMAP
001520
00ABE0
00E9B0
28FF91
C8ABF9
F8EFFC
F8EFFC
FB77EC
EFFFFB
5DFFC3
ENDCHAR
STARTCHAR cacute
ENCODING 263
SWIDTH 578 0
DWIDTH 6 0
BBX 6 10 0 0
BITMAP
001520
00ABE0
00E9A0
28FF91
C8ABF9
F8EFFC
F8EFFC
FB77EC
EFFFFB
5DFFC3
ENDCHAR
STARTCHAR Ccircumflex
ENCODING 264
SWIDTH 578 0
DWIDTH 6 0
BBX 6 10 0 0
BITMAP
006700
03DC50
09AAB0
2FFFF1
C8ABF9
F8EFFC
F8EFFC
FB77EC
EFFFFB
5DFFC3
ENDCHAR
STARTCHAR ccircumflex
ENCODING 265
SWIDTH 578 0
DWIDTH 6 0
BBX 6 10 0 0
BITMAP
006700
04CC40
0AAAA0
2FFFF1
C8ABF9
F8EFFC
F8EFFC
FB77EC
EFFFFB
5DFFC3
ENDCHAR
STARTCHAR Cdotaccent
ENCODING 266
SWIDTH 578 0
DWIDTH 6 0
BBX 6 9 0 0
BITMAP
09DC50
4FBEE0
4FFFF1
C8ABF9
F8EFFC
F8EFFC
FB77EC
EFFFFB
5DFFC3
ENDCHAR
STARTCHAR cdotaccent
ENCODING 267
SWIDTH 578 0
DWIDTH 6 0
BBX 6 9 0 0
BITMAP
08DC60
3FBDF0
3FFFF1
C8ABF9
F8EFFC
F8EFFC
FB77EC
EFFFFB
5DFFC3
ENDCHAR
STARTCHAR Ccaron
ENCODING 268
SWIDTH 578 0
DWIDTH 6 0
BBX 6 10 0 0
BITMAP
022310
0EDD80
0C9B70
2EFF91
C8ABF9
F8EFFC
F8EFFC
FB77EC
EFFFFB
5DFFC3
ENDCHAR
STARTCHAR ccaron
ENCODING 269
SWIDTH 578 0
DWIDTH 6 0
BBX 6 10 0 0
BITMAP
013310
0CDDA0
0BAA90
2DFFB1
C8ABF9
F8EFFC
F8EFFC
FB77EC
EFFFFB
5DFFC3
ENDCHAR
STARTCHAR Dcaron
ENCODING 270
SWIDTH 578 0
DWIDTH 6 0
BBX 6 10 0 0
BITMAP
013310
0DDD90
0BAA80
2DFF91
C9AB79
F9DF7C
F9DF7C
FA779C
EFFFFB
5DFFC3
ENDCHAR
STARTCHAR dcaron
ENCODING 271
SWIDTH 578 0
DWIDTH 6 0
BBX 6 7 0 0
BITMAP
257851
C6B679
F8F8FC
F8F8FC
F776FC
EFFFFB
5DFFC3
ENDCHAR
STARTCHAR Dcroat
ENCODING 272
SWIDTH 578 0
DWIDTH 6 0
BBX 6 7 0 0
BITMAP
277661
C9AB79
F48F7C
F9DF7C
FA779C
EFFFFB
5DFFC3
ENDCHAR
STARTCHAR dcroat
ENCODING 273
SWIDTH 578 0
DWIDTH 6 0
BBX 6 7 0 0
BITMAP
277661
C9AB79
F48F7C
F9DF7C
FA779C
EFFFFB
5DFFC3
ENDCHAR
STARTCHAR Emacron
ENCODING 274
SWIDTH 578 0
DWIDTH 6 0
BBX 6 9 0 0
BITMAP
05CD80
0E87F3
2FFFF2
CF6BE9
FF48EC
FF8FFC
FF57CC
EFFFFB
5DFFC3
ENDCHAR
STARTCHAR emacron
ENCODING 275
SWIDTH 578 0
DWIDTH 6 0
BBX 6 9 0 0
BITMAP
08DC50
3E79F0
3FFFF1
C8B8B9
F776CC
F7FFFC
FC77EC
EFFFFB
5DFFC3
ENDCHAR
STARTCHAR Ebreve
ENCODING 276
SWIDTH 578 0
DWIDTH 6 0
BBX 6 9 0 0
BITMAP
05CD80
0ECBF3
2FFFF2
CF6BE9
FF48EC
FF8FFC
FF57CC
EFFFFB
5DFFC3
ENDCHAR
STARTCHAR ebreve
ENCODING 277
SWIDTH 578 0
DWIDTH 6 0
BBX 6 9 0 0
BITMAP
08DC50
3FBCF0
3FFFF1
C8B8B9
F776CC
F7FFFC
FC77EC
EFFFFB
5DFFC3
ENDCHAR
STARTCHAR Edotaccent
ENCODING 278
SWIDTH 578 0
DWIDTH 6 0
BBX 6 9 0 0
BITMAP
05CD80
0EDBF3
2FFFF2
CF6BE9
FF48EC
FF8FFC
FF57CC
EFFFFB
5DFFC3
ENDCHAR
STARTCHAR edotaccent
ENCODING 279
SWIDTH 578 0
DWIDTH 6 0
BBX 6 9 0 0
BITMAP
08DC50
3FBDF0
3FFFF1
C8B8B9
F776CC
F7FFFC
FC77EC
EFFFFB
5DFFC3
ENDCHAR
STARTCHAR Eogonek
ENCODING 280
SWIDTH 578 0
DWIDTH 6 0
BBX 6 7 0 0
BITMAP
287661
CF6BE9
FF48EC
FF8FFC
FF57BC
EFF8EB
5DFDA3
ENDCHAR
STARTCHAR eogonek
ENCODING 281
SWIDTH 578 0
DWIDTH 6 0
BBX 6 7 0 0
BITMAP
287771
C8B8B9
F776CC
F7FFFC
FC75EC
EFABFB
5DFDC3
ENDCHAR
STARTCHAR Ecaron
ENCODING 282
SWIDTH 578 0
DWIDTH 6 0
BBX 6 10 0 0
BITMAP
013220
09DDD0
07A9C0
2BFFC1
CF6BE9
FF48EC
FF8FFC
FF57CC
EFFFFB
5DFFC3
ENDCHAR
STARTCHAR ecaron
ENCODING 283
SWIDTH 578 0
DWIDTH 6 0
BBX 6 10 0 0
BITMAP
013310
0DDD90
0BAA80
2DFFA1
C8B8B9
F776CC
F7FFFC
FC77EC
EFFFFB
5DFFC3
ENDCHAR
STARTCHAR Gcircumflex
ENCODING 284
SWIDTH 578 0
DWIDTH 6 0
BBX 6 10 0 0
BITMAP
006600
04CC40
0AAAA0
2FFFE1
CB9BD9
FACCCC
FACC7C
FD679C
EFFFFB
5DFFC3
ENDCHAR
STARTCHAR gcircumflex
ENCODING 285
SWIDTH 578 0
DWIDTH 6 0
BBX 6 10 0 0
BITMAP
006600
04CC40
0AAAA0
2FFFE1
CB9BD9
FACCCC
FACC7C
FD679C
EFFFFB
5DFFC3
ENDCHAR
STARTCHAR Gbreve
ENCODING 286
SWIDTH 578 0
DWIDTH 6 0
BBX 6 9 0 0
BITMAP
07DD60
2FBBF1
2FFFF1
CB9BD9
FACCCC
FACC7C
FD679C
EFFFFB
5DFFC3
ENDCHAR
STARTCHAR gbreve
ENCODING 287
SWIDTH 578 0
DWIDTH 6 0
BBX 6 9 0 0
BITMAP
08DC50
3FBCF0
3FFFF1
CB9BD9
FACCCC
FACC7C
FD679C
EFFFFB
5DFFC3
ENDCHAR
STARTCHAR Gdotaccent
ENCODING 288
SWIDTH 578 0
DWIDTH 6 0
BBX 6 9 0 0
BITMAP
08DC50
3FBDF0
3FFFF1
CB9BD9
FACCCC
FACC7C
FD679C
EFFFFB
5DFFC3
ENDCHAR
STARTCHAR gdotaccent
ENCODING 289
SWIDTH 578 0
DWIDTH 6 0
BBX 6 9 0 0
BITMAP
08DC50
3FBDF0
3FFFF1
CB9BD9
FACCCC
FACC7C
FD679C
EFFFFB
5DFFC3
ENDCHAR
STARTCHAR Gcommaaccent
ENCODING 290
SWIDTH 578 0
DWIDTH 6 0
BBX 6 7 0 0
BITMAP
287661
CB9BD9
FACCCC
FACC7C
FD679C
EFD9FB
5DFDC3
ENDCHAR
STARTCHAR gcommaaccent
ENCODING 291
SWIDTH 578 0
DWIDTH 6 0
BBX 6 7 0 0
BITMAP
287661
CB9BD9
FACCCC
FACC7C
FD679C
EFD9FB
5DFDC3
ENDCHAR
STARTCHAR Hcircumflex
ENCODING 292
SWIDTH 578 0
DWIDTH 6 0
BBX 6 10 0 0
BITMAP
006700
04CC40
0AAAA0
2FFFE1
C9DF89
F9676C
F9DF8C
FAEF9C
EFFFFB
5DFFC3
ENDCHAR
STARTCHAR hcircumflex
ENCODING 293
SWIDTH 578 0
DWIDTH 6 0
BBX 6 10 0 0
BITMAP
006700
03DC50
09AAB0
2FFFE1
C9DF89
F9676C
F9DF8C
FAEF9C
EFFFFB
5DFFC3
ENDCHAR
STARTCHAR Hbar
ENCODING 294
SWIDTH 578 0
DWIDTH 6 0
BBX 6 9 0 0
BITMAP
07DD60
2F78F1
2FFFF1
C9DF89
F9676C
F9DF8C
FAEF9C
EFFFFB
5DFFC3
ENDCHAR
STARTCHAR hbar
ENCODING 295
SWIDTH 578 0
DWIDTH 6 0
BBX 6 7 0 0
BITMAP
27AA51
C87859
F9676C
F9DF8C
FAEF9C
EFFFFB
5DFFC3
ENDCHAR
STARTCHAR Itilde
ENCODING 296
SWIDTH 578 0
DWIDTH 6 0
BBX 6 10 0 0
BITMAP
001200
07FFC1
0EBCE4
2FFFF2
CEA6D9
FFE9FC
FFE9FC
FD76BC
EFFFFB
5DFFC3
ENDCHAR
STARTCHAR itilde
ENCODING 297
SWIDTH 578 0
DWIDTH 6 0
BBX 6 10 0 0
BITMAP
001200
08FFC0
0EBCE4
2FFFF2
CEA6D9
FFE9FC
FFE9FC
FD76BC
EFFFFB
5DFFC3
ENDCHAR
STARTCHAR Imacron
ENCODING 298
SWIDTH 578 0
DWIDTH 6 0
BBX 6 9 0 0
BITMAP
05CD80
0E87F3
2FFFF2
CEA6D9
FFE9FC
FFE9FC
FD76BC
EFFFFB
5DFFC3
ENDCHAR
STARTCHAR imacron
ENCODING 299
SWIDTH 578 0
DWIDTH 6 0
BBX 6 9 0 0
BITMAP
06DD80
0F88F3
2FFFF1
CEA6D9
FFE9FC
FFE9FC
FD76BC
EFFFFB
5DFFC3
ENDCHAR
STARTCHAR Ibreve
ENCODING 300
SWIDTH 578 0
DWIDTH 6 0
BBX 6 9 0 0
BITMAP
05CD90
0ECCF4
2FFFF2
CEA6D9
FFE9FC
FFE9FC
FD76BC
EFFFFB
5DFFC3
ENDCHAR
STARTCHAR ibreve
ENCODING 301
SWIDTH 578 0
DWIDTH 6 0
BBX 6 9 0 0
BITMAP
05CD80
0ECCF4
2FFFF2
CEA6D9
FFE9FC
FFE9FC
FD76BC
EFFFFB
5DFFC3
ENDCHAR
STARTCHAR Iogonek
ENCODING 302
SWIDTH 578 0
DWIDTH 6 0
BBX 6 7 0 0
BITMAP
287651
CEA6D9
FFE9FC
FFE9FC
FD759C
EFF9DB
5DFE93
ENDCHAR
STARTCHAR iogonek
ENCODING 303
SWIDTH 578 0
DWIDTH 6 0
BBX 6 7 0 0
BITMAP
287651
CEA6D9
FFE9FC
FFE9FC
FD759C
EFF9DB
5DFE93
ENDCHAR
STARTCHAR Idotaccent
ENCODING 304
SWIDTH 578 0
DWIDTH 6 0
BBX 6 9 0 0
BITMAP
07DD70
2FCDF1
2FFFF1
CEA6D9
FFE9FC
FFE9FC
FD76BC
EFFFFB
5DFFC3
ENDCHAR
STARTCHAR dotlessi
ENCODING 305
SWIDTH 578 0
DWIDTH 6 0
BBX 6 7 0 0
BITMAP
287651
CEA6D9
FFE9FC
FFE9FC
FD76BC
EFFFFB
5DFFC3
ENDCHAR
STARTCHAR IJ
ENCODING 306
SWIDTH 578 0
DWIDTH 6 0
BBX 6 7 0 0
BITMAP
157A51
C7AF79
F9DF7C
F9DF7C
E6798C
EFFFFB
5DFFC3
ENDCHAR
STARTCHAR ij
ENCODING 307
SWIDTH 578 0
DWIDTH 6 0
BBX 6 7 0 0
BITMAP
157A51
C7AF79
F9DF7C
F9DF7C
E6798C
EFFFFB
5DFFC3
ENDCHAR
STARTCHAR Jcircumflex
ENCODING 308
SWIDTH 578 0
DWIDTH 6 0
BBX 6 10 0 0
BITMAP
005700
03DC60
09AAB0
2FFFF1
CFF7F9
FFF7FC
FFF7FC
FF98FC
EFFFFB
5DFFC3
ENDCHAR
STARTCHAR jcircumflex
ENCODING 309
SWIDTH 578 0
DWIDTH 6 0
BBX 6 10 0 0
BITMAP
005700
03DC60
09AAB0
2FFFF1
CFF7F9
FFF7FC
FFF7FC
FF98FC
EFFFFB
5DFFC3
ENDCHAR
STARTCHAR Kcommaaccent
ENCODING 310
SWIDTH 578 0
DWIDTH 6 0
BBX 6 7 0 0
BITMAP
288A51
CF7999
FF38FC
FF66EC
FF9E9C
EFD9FB
5DFDC3
ENDCHAR
STARTCHAR kcommaaccent
ENCODING 311
SWIDTH 578 0
DWIDTH 6 0
BBX 6 7 0 0
BITMAP
288A51
CF7999
FF38FC
FF66EC
FF9E9C
EFD9FB
5DFDC3
ENDCHAR
STARTCHAR kgreenlandic
ENCODING 312
SWIDTH 578 0
DWIDTH 6 0
BBX 6 7 0 0
BITMAP
288A51
CF7999
FF38FC
FF66EC
FF9E9C
EFFFFB
5DFFC3
ENDCHAR
STARTCHAR Lacute
ENCODING 313
SWIDTH 578 0
DWIDTH 6 0
BBX 6 10 0 0
BITMAP
004400
04DD50
089E20
2FFF71
CF7FF9
FF7FFC
FF7FFC
FF77DC
EFFFFB
5DFFC3
ENDCHAR
STARTCHAR lacute
ENCODING 314
SWIDTH 578 0
DWIDTH 6 0
BBX 6 10 0 0
BITMAP
004400
04DD50
089E20
2FFF71
CF7FF9
FF7FFC
FF7FFC
FF77DC
EFFFFB
5DFFC3
ENDCHAR
STARTCHAR Lcommaaccent
ENCODING 315
SWIDTH 578 0
DWIDTH 6 0
BBX 6 7 0 0
BITMAP
288A71
CF7FF9
FF7FFC
FF7FFC
FF77DC
EFD9FB
5DFDC3
ENDCHAR
STARTCHAR lcommaaccent
ENCODING 316
SWIDTH 578 0
DWIDTH 6 0
BBX 6 7 0 0
BITMAP
288A71
CF7FF9
FF7FFC
FF7FFC
FF77DC
EFD9FB
5DFDC3
ENDCHAR
STARTCHAR Lcaron
ENCODING 317
SWIDTH 578 0
DWIDTH 6 0
BBX 6 7 0 0
BITMAP
288871
CF78E9
FF7FFC
FF7FFC
FF77DC
EFFFFB
5DFFC3
ENDCHAR
STARTCHAR lcaron
ENCODING 318
SWIDTH 578 0
DWIDTH 6 0
BBX 6 7 0 0
BITMAP
288871
CF78E9
FF7FFC
FF7FFC
FF77DC
EFFFFB
5DFFC3
ENDCHAR
STARTCHAR Ldot
ENCODING 319
SWIDTH 578 0
DWIDTH 6 0
BBX 6 7 0 0
BITMAP
288A71
CF7FF9
FF79FC
FF7FFC
FF77DC
EFFFFB
5DFFC3
ENDCHAR
STARTCHAR ldot
ENCODING 320
SWIDTH 578 0
DWIDTH 6 0
BBX 6 7 0 0
BITMAP
288A71
CF7FF9
FF79FC
FF7FFC
FF77DC
EFFFFB
5DFFC3
ENDCHAR
STARTCHAR Lslash
ENCODING 321
SWIDTH 578 0
DWIDTH 6 0
BBX 6 7 0 0
BITMAP
288A71
CF7FF9
FE5EFC
FE7FFC
FF77DC
EFFFFB
5DFFC3
ENDCHAR
STARTCHAR lslash
ENCODING 322
SWIDTH 578 0
DWIDTH 6 0
BBX 6 7 0 0
BITMAP
288A71
CF7FF9
FE5EFC
FE7FFC
FF77DC
EFFFFB
5DFFC3
ENDCHAR
STARTCHAR Nacute
ENCODING 323
SWIDTH 578 0
DWIDTH 6 0
BBX 6 10 0 0
BITMAP
002510
00DBC0
02DA80
29FF71
C9AB79
F9EF7C
F9EF7C
FAEF9C
EFFFFB
5DFFC3
ENDCHAR
STARTCHAR nacute
ENCODING 324
SWIDTH 578 0
DWIDTH 6 0
BBX 6 10 0 0
BITMAP
002510
00DBC0
02DA80
29FF71
C9AB79
F9EF7C
F9EF7C
FAEF9C
EFFFFB
5DFFC3
ENDCHAR
STARTCHAR Ncommaaccent
ENCODING 325
SWIDTH 578 0
DWIDTH 6 0
BBX 6 7 0 0
BITMAP
277671
C9AB79
F9EF7C
F9EF7C
FAEF9C
EFD9FB
5DFDC3
ENDCHAR
STARTCHAR ncommaaccent
ENCODING 326
SWIDTH 578 0
DWIDTH 6 0
BBX 6 7 0 0
BITMAP
277671
C9AB79
F9EF7C
F9EF7C
FAEF9C
EFD9FB
5DFDC3
ENDCHAR
STARTCHAR Ncaron
ENCODING 327
SWIDTH 578 0
DWIDTH 6 0
BBX 6 10 0 0
BITMAP
013310
0DDD90
0BAA80
2DFFA1
C9AB79
F9EF7C
F9EF7C
FAEF9C
EFFFFB
5DFFC3
ENDCHAR
STARTCHAR ncaron
ENCODING 328
SWIDTH 578 0
DWIDTH 6 0
BBX 6 10 0 0
BITMAP
013310
0DDD90
0BAA80
2DFFA1
C9AB79
F9EF7C
F9EF7C
FAEF9C
EFFFFB
5DFFC3
ENDCHAR
STARTCHAR napostrophe
ENCODING 329
SWIDTH 578 0
DWIDTH 6 0
BBX 6 7 0 0
BITMAP
277671
76AB79
D8EF7C
F9EF7C
FAEF9C
EFFFFB
5DFFC3
ENDCHAR
STARTCHAR Eng
ENCODING 330
SWIDTH 578 0
DWIDTH 6 0
BBX 6 7 0 0
BITMAP
277671
C9AB79
F9EF7C
F9EF7C
FAEF7C
EFFA7B
5DFCC3
ENDCHAR
STARTCHAR eng
ENCODING 331
SWIDTH 578 0
DWIDTH 6 0
BBX 6 7 0 0
BITMAP
277671
C9AB79
F9EF7C
F9EF7C
FAEF7C
EFFA7B
5DFCC3
ENDCHAR
STARTCHAR Omacron
ENCODING 332
SWIDTH 578 0
DWIDTH 6 0
BBX 6 9 0 0
BITMAP
05CD80
0F87F3
2FFFF1
C9AB79
F9EF7C
F9EF7C
FC779C
EFFFFB
5DFFC3
ENDCHAR
STARTCHAR omacron
ENCODING 333
SWIDTH 578 0
DWIDTH 6 0
BBX 6 9 0 0
BITMAP
05CD80
0F87F3
2FFFF1
C9AB79
F9EF7C
F9EF7C
FC779C
EFFFFB
5DFFC3
ENDCHAR
STARTCHAR Obreve
ENCODING 334
SWIDTH 578 0
DWIDTH 6 0
BBX 6 9 0 0
BITMAP
05CD80
0FCBF3
2FFFF1
C9AB79
F9EF7C
F9EF7C
FC779C
EFFFFB
5DFFC3
ENDCHAR
STARTCHAR obreve
ENCODING 335
SWIDTH 578 0
DWIDTH 6 0
BBX 6 9 0 0
BITMAP
05CD80
0FCBF3
2FFFF1
C9AB79
F9EF7C
F9EF7C
FC779C
EFFFFB
5DFFC3
ENDCHAR
STARTCHAR Ohungarumlaut
ENCODING 336
SWIDTH 578 0
DWIDTH 6 0
BBX 6 10 0 0
BITMAP
001661
00ACC8
03DBB7
2DFFF1
C9AB79
F9EF7C
F9EF7C
FC779C
EFFFFB
5DFFC3
ENDCHAR
STARTCHAR ohungarumlaut
ENCODING 337
SWIDTH 578 0
DWIDTH 6 0
BBX 6 10 0 0
BITMAP
001661
00ACC8
03DBB7
2DFFF1
C9AB79
F9EF7C
F9EF7C
FC779C
EFFFFB
5DFFC3
ENDCHAR
STARTCHAR OE
ENCODING 338
SWIDTH 578 0
DWIDTH 6 0
BBX 6 7 0 0
BITMAP
277751
C6A7C9
F7D5BC
F7D9FC
F7769C
EFFFFB
5DFFC3
ENDCHAR
STARTCHAR oe
ENCODING 339
SWIDTH 578 0
DWIDTH 6 0
BBX 6 7 0 0
BITMAP
277751
C6A7C9
F7D5BC
F7D9FC
F7769C
EFFFFB
5DFFC3
ENDCHAR
STARTCHAR Racute
ENCODING 340
SWIDTH 578 0
DWIDTH 6 0
BBX 6 10 0 0
BITMAP
002510
00DBC0
02DA80
29FF81
CA99A9
FA88CC
FAABAC
FBDEAC
EFFFFB
5DFFC3
ENDCHAR
STARTCHAR racute
ENCODING 341
SWIDTH 578 0
DWIDTH 6 0
BBX 6 10 0 0
BITMAP
002510
00DBC0
02DA80
29FF81
CA99A9
FA88CC
FAABAC
FBDEAC
EFFFFB
5DFFC3
ENDCHAR
STARTCHAR Rcommaaccent
ENCODING 342
SWIDTH 578 0
DWIDTH 6 0
BBX 6 7 0 0
BITMAP
277771
CA99A9
FA88CC
FAABAC
FBDEAC
EFD9FB
5DFDC3
ENDCHAR
STARTCHAR rcommaaccent
ENCODING 343
SWIDTH 578 0
DWIDTH 6 0
BBX 6 7 0 0
BITMAP
277771
CA99A9
FA88CC
FAABAC
FBDEAC
EFD9FB
5DFDC3
ENDCHAR
STARTCHAR Rcaron
ENCODING 344
SWIDTH 578 0
DWIDTH 6 0
BBX 6 10 0 0
BITMAP
013310
0DDD90
0BAA80
2DFFA1
CA99A9
FA88CC
FAABAC
FBDEAC
EFFFFB
5DFFC3
ENDCHAR
STARTCHAR rcaron
ENCODING 345
SWIDTH 578 0
DWIDTH 6 0
BBX 6 10 0 0
BITMAP
013310
0DDD90
0BAA80
2DFFA1
CA99A9
FA88CC
FAABAC
FBDEAC
EFFFFB
5DFFC3
ENDCHAR
STARTCHAR Sacute
ENCODING 346
SWIDTH 578 0
DWIDTH 6 0
BBX 6 10 0 0
BITMAP
001520
00ABE0
00E9B0
29FF81
CB8BD9
FC68CC
FFFF7C
FE77AC
EFFFFB
5DFFC3
ENDCHAR
STARTCHAR sacute
ENCODING 347
SWIDTH 578 0
DWIDTH 6 0
BBX 6 10 0 0
BITMAP
001520
00ABE0
00E9B0
29FF81
CB8BD9
FC68CC
FFFF7C
FE77AC
EFFFFB
5DFFC3
ENDCHAR
STARTCHAR Scircumflex
ENCODING 348
SWIDTH 578 0
DWIDTH 6 0
BBX 6 10 0 0
BITMAP
005700
02DB70
07A9D0
2FFFF1
CB8BD9
FC68CC
FFFF7C
FE77AC
EFFFFB
5DFFC3
ENDCHAR
STARTCHAR scircumflex
ENCODING 349
SWIDTH 578 0
DWIDTH 6 0
BBX 6 10 0 0
BITMAP
005700
02DB70
07A9D0
2FFFF1
CB8BD9
FC68CC
FFFF7C
FE77AC
EFFFFB
5DFFC3
ENDCHAR
STARTCHAR Scedilla
ENCODING 350
SWIDTH 578 0
DWIDTH 6 0
BBX 6 7 0 0
BITMAP
287661
CB8BD9
FC68CC
FFFF7C
FE76AC
EF7CFB
5DDDC3
ENDCHAR
STARTCHAR scedilla
ENCODING 351
SWIDTH 578 0
DWIDTH 6 0
BBX 6 7 0 0
BITMAP
287661
CB8BD9
FC68CC
FFFF7C
FE76AC
EF7CFB
5DDDC3
ENDCHAR
STARTCHAR Scaron
ENCODING 352
SWIDTH 578 0
DWIDTH 6 0
BBX 6 10 0 0
BITMAP
003220
08DDE0
06B9D0
2AFFD1
CB8BD9
FC68CC
FFFF7C
FE77AC
EFFFFB
5DFFC3
ENDCHAR
STARTCHAR scaron
ENCODING 353
SWIDTH 578 0
DWIDTH 6 0
BBX 6 10 0 0
BITMAP
003220
08DDE0
06B9D0
2AFFD1
CB8BD9
FC68CC
FFFF7C
FE77AC
EFFFFB
5DFFC3
ENDCHAR
STARTCHAR Tcommaaccent
ENCODING 354
SWIDTH 578 0
DWIDTH 6 0
BBX 6 7 0 0
BITMAP
287651
CEA6D9
FFE9FC
FFE9FC
FFEAFC
EFD9FB
5DFDC3
ENDCHAR
STARTCHAR tcommaaccent
ENCODING 355
SWIDTH 578 0
DWIDTH 6 0
BBX 6 7 0 0
BITMAP
287651
CEA6D9
FFE9FC
FFE9FC
FFEAFC
EFD9FB
5DFDC3
ENDCHAR
STARTCHAR Tcaron
ENCODING 356
SWIDTH 578 0
DWIDTH 6 0
BBX 6 10 0 0
BITMAP
013320
0ADDC0
08AAB0
2BFFB1
CEA6D9
FFE9FC
FFE9FC
FFEAFC
EFFFFB
5DFFC3
ENDCHAR
STARTCHAR tcaron
ENCODING 357
SWIDTH 578 0
DWIDTH 6 0
BBX 6 7 0 0
BITMAP
287651
CEA599
FFE8AC
FFE9FC
FFEAFC
EFFFFB
5DFFC3
ENDCHAR
STARTCHAR Tbar
ENCODING 358
SWIDTH 578 0
DWIDTH 6 0
BBX 6 7 0 0
BITMAP
287651
CEA6D9
FFA5FC
FFD8FC
FFEAFC
EFFFFB
5DFFC3
ENDCHAR
STARTCHAR tbar
ENCODING 359
SWIDTH 578 0
DWIDTH 6 0
BBX 6 7 0 0
BITMAP
287651
CEA6D9
FFA5FC
FFD8FC
FFEAFC
EFFFFB
5DFFC3
ENDCHAR
STARTCHAR Utilde
ENCODING 360
SWIDTH 578 0
DWIDTH 6 0
BBX 6 10 0 0
BITMAP
001200
08FFB0
0EBCE4
2FFFF2
C8EF79
F8EF7C
F8EF7C
FB77AC
EFFFFB
5DFFC3
ENDCHAR
STARTCHAR utilde
ENCODING 361
SWIDTH 578 0
DWIDTH 6 0
BBX 6 10 0 0
BITMAP
001200
08FFC0
0EBCE4
2FFFF2
C8EF79
F8EF7C
F8EF7C
FB77AC
EFFFFB
5DFFC3
ENDCHAR
STARTCHAR Umacron
ENCODING 362
SWIDTH 578 0
DWIDTH 6 0
BBX 6 9 0 0
BITMAP
05CD80
0E87F3
2FFFF2
C8EF79
F8EF7C
F8EF7C
FB77AC
EFFFFB
5DFFC3
ENDCHAR
STARTCHAR umacron
ENCODING 363
SWIDTH 578 0
DWIDTH 6 0
BBX 6 9 0 0
BITMAP
05CD80
0E87F3
2FFFF2
C8EF79
F8EF7C
F8EF7C
FB77AC
EFFFFB
5DFFC3
ENDCHAR
STARTCHAR Ubreve
ENCODING 364
SWIDTH 578 0
DWIDTH 6 0
BBX 6 9 0 0
BITMAP
05CD80
0ECBF3
2FFFF2
C8EF79
F8EF7C
F8EF7C
FB77AC
EFFFFB
5DFFC3
ENDCHAR
STARTCHAR ubreve
ENCODING 365
SWIDTH 578 0
DWIDTH 6 0
BBX 6 9 0 0
BITMAP
05CD80
0ECCF4
2FFFF2
C8EF79
F8EF7C
F8EF7C
FB77AC
EFFFFB
5DFFC3
ENDCHAR
STARTCHAR Uring
ENCODING 366
SWIDTH 578 0
DWIDTH 6 0
BBX 6 10 0 0
BITMAP
000100
04DD60
0B87D0
2FFFF1
C8EF79
F8EF7C
F8EF7C
FB77AC
EFFFFB
5DFFC3
ENDCHAR
STARTCHAR uring
ENCODING 367
SWIDTH 578 0
DWIDTH 6 0
BBX 6 10 0 0
BITMAP
000100
04DD60
0A87E0
2FFFF1
C8EF79
F8EF7C
F8EF7C
FB77AC
EFFFFB
5DFFC3
ENDCHAR
STARTCHAR Uhungarumlaut
ENCODING 368
SWIDTH 581 0
DWIDTH 6 0
BBX 6 10 0 0
BITMAP
001661
00ACC9
03DBB7
2BFFF1
C8EF79
F8EF7C
F8EF7C
FB77AC
EFFFFB
5DFFC3
ENDCHAR
STARTCHAR uhungarumlaut
ENCODING 369
SWIDTH 582 0
DWIDTH 6 0
BBX 6 10 0 0
BITMAP
001661
00ACC9
03DBB7
2BFFF1
C8EF79
F8EF7C
F8EF7C
FB77AC
EFFFFB
5DFFC3
ENDCHAR
STARTCHAR Uogonek
ENCODING 370
SWIDTH 578 0
DWIDTH 6 0
BBX 6 7 0 0
BITMAP
27AA51
C8EF79
F8EF7C
F8EF7C
FB76AC
EFBBFB
5DEBC3
ENDCHAR
STARTCHAR uogonek
ENCODING 371
SWIDTH 578 0
DWIDTH 6 0
BBX 6 7 0 0
BITMAP
27AA51
C8EF79
F8EF7C
F8EF7C
FB76AC
EFBBFB
5DEBC3
ENDCHAR
STARTCHAR Wcircumflex
ENCODING 372
SWIDTH 578 0
DWIDTH 6 0
BBX 6 10 0 0
BITMAP
006600
04CC40
0AAAA0
2FFFE1
C7AA79
F7887C
F7777C
FA899C
EFFFFB
5DFFC3
ENDCHAR
STARTCHAR wcircumflex
ENCODING 373
SWIDTH 578 0
DWIDTH 6 0
BBX 6 10 0 0
BITMAP
006600
04CC40
0AAAA0
2FFFE1
C7AA79
F7887C
F7777C
FA899C
EFFFFB
5DFFC3
ENDCHAR
STARTCHAR Ycircumflex
ENCODING 374
SWIDTH 578 0
DWIDTH 6 0
BBX 6 10 0 0
BITMAP
005700
03DC60
09AAB0
2FFFF1
CE7AB9
FF76FC
FFC8FC
FFDBFC
EFFFFB
5DFFC3
ENDCHAR
STARTCHAR ycircumflex
ENCODING 375
SWIDTH 578 0
DWIDTH 6 0
BBX 6 10 0 0
BITMAP
005700
03DC60
09AAB0
2FFFF1
CE7AB9
FF76FC
FFC8FC
FFDBFC
EFFFFB
5DFFC3
ENDCHAR
STARTCHAR Ydieresis
ENCODING 376
SWIDTH 578 0
DWIDTH 6 0
BBX 6 9 0 0
BITMAP
04BC60
0C99E0
2EFFF1
CE7AB9
FF76FC
FFC8FC
FFDBFC
EFFFFB
5DFFC3
ENDCHAR
STARTCHAR Zacute
ENCODING 377
SWIDTH 578 0
DWIDTH 6 0
BBX 6 10 0 0
BITMAP
003510
01EB80
05AD40
2CFF71
CFB5E9
FFD8FC
FF7FFC
FE58DC
EFFFFB
5DFFC3
ENDCHAR
STARTCHAR zacute
ENCODING 378
SWIDTH 578 0
DWIDTH 6 0
BBX 6 10 0 0
BITMAP
003510
01EB80
05AD40
2CFF71
CFB5E9
FFD8FC
FF7FFC
FE58DC
EFFFFB
5DFFC3
ENDCHAR
STARTCHAR Zdotaccent
ENCODING 379
SWIDTH 578 0
DWIDTH 6 0
BBX 6 9 0 0
BITMAP
08DC50
3FBDF0
3FFFF1
CFB5E9
FFD8FC
FF7FFC
FE58DC
EFFFFB
5DFFC3
ENDCHAR
STARTCHAR zdotaccent
ENCODING 380
SWIDTH 578 0
DWIDTH 6 0
BBX 6 9 0 0
BITMAP
08DC50
3FBDF0
3FFFF1
CFB5E9
FFD8FC
FF7FFC
FE58DC
EFFFFB
5DFFC3
ENDCHAR
STARTCHAR Zcaron
ENCODING 381
SWIDTH 578 0
DWIDTH 6 0
BBX 6 10 0 0
BITMAP
013310
0BDDA0
0AAA90
2DFFB1
CFB5E9
FFD8FC
FF7FFC
FE58DC
EFFFFB
5DFFC3
ENDCHAR
STARTCHAR zcaron
ENCODING 382
SWIDTH 578 0
DWIDTH 6 0
BBX 6 10 0 0
BITMAP
013310
0BDDA0
0AAA90
2DFFB1
CFB5E9
FFD8FC
FF7FFC
FE58DC
EFFFFB
5DFFC3
ENDCHAR
STARTCHAR longs
ENCODING 383
SWIDTH 578 0
DWIDTH 6 0
BBX 6 7 0 0
BITMAP
28AA71
CD99C9
F9EDAC
FCA9CC
FFEEFC
EFFFFB
5DFFC3
ENDCHAR
STARTCHAR florin
ENCODING 402
SWIDTH 578 0
DWIDTH 6 0
BBX 6 7 0 0
BITMAP
28A771
CF8BF9
FF4BFC
FF7FFC
FF7FFC
ED8FFB
5DFFC3
ENDCHAR
STARTCHAR uni01CD
ENCODING 461
SWIDTH 578 0
DWIDTH 6 0
BBX 6 10 0 0
BITMAP
013310
0ADDC0
09AAB0
2CFFD1
CC78B9
FAAB9C
F99A7C
F9FF8C
EFFFFB
5DFFC3
ENDCHAR
STARTCHAR uni01CE
ENCODING 462
SWIDTH 578 0
DWIDTH 6 0
BBX 6 10 0 0
BITMAP
013220
09DDD0
07A9C0
2AFFE1
CEB8B9
FEA8BC
F7C9BC
FA76CC
EFFFFB
5DFFC3
ENDCHAR
STARTCHAR uni01CF
ENCODING 463
SWIDTH 578 0
DWIDTH 6 0
BBX 6 10 0 0
BITMAP
003220
08DDE0
07B9D0
29FFC1
CEA6D9
FFE9FC
FFE9FC
FD76BC
EFFFFB
5DFFC3
ENDCHAR
STARTCHAR uni01D0
ENCODING 464
SWIDTH 578 0
DWIDTH 6 0
BBX 6 10 0 0
BITMAP
013220
08DDE0
07B9C0
2AFFC1
CEA6D9
FFE9FC
FFE9FC
FD76BC
EFFFFB
5DFFC3
ENDCHAR
STARTCHAR uni01D1
ENCODING 465
SWIDTH 578 0
DWIDTH 6 0
BBX 6 10 0 0
BITMAP
013220
09DDD0
08AAC0
2BFFC1
C9AB79
F9EF7C
F9EF7C
FC779C
EFFFFB
5DFFC3
ENDCHAR
STARTCHAR uni01D3
ENCODING 467
SWIDTH 578 0
DWIDTH 6 0
BBX 6 10 0 0
BITMAP
013220
09DDD0
07A9C0
29FFC1
C8EF79
F8EF7C
F8EF7C
FB77AC
EFFFFB
5DFFC3
ENDCHAR
STARTCHAR uni01D4
ENCODING 468
SWIDTH 578 0
DWIDTH 6 0
BBX 6 10 0 0
BITMAP
013220
08DDE0
07B9C0
29FFC1
C8EF79
F8EF7C
F8EF7C
FB77AC
EFFFFB
5DFFC3
ENDCHAR
STARTCHAR uni0200
ENCODING 512
SWIDTH 578 0
DWIDTH 6 0
BBX 6 10 0 0
BITMAP
066300
5CCD00
3DBB70
2FFFE1
CC78B9
FAAB9C
F99A7C
F9FF8C
EFFFFB
5DFFC3
ENDCHAR
STARTCHAR uni0201
ENCODING 513
SWIDTH 578 0
DWIDTH 6 0
BBX 6 10 0 0
BITMAP
066300
5CCD00
3DBB70
2FFFE1
CEB8B9
FEA8BC
F7C9BC
FA76CC
EFFFFB
5DFFC3
ENDCHAR
STARTCHAR uni0202
ENCODING 514
SWIDTH 578 0
DWIDTH 6 0
BBX 6 10 0 0
BITMAP
003300
0BFFC0
1F87F2
2FFFE1
CC78B9
FAAB9C
F99A7C
F9FF8C
EFFFFB
5DFFC3
ENDCHAR
STARTCHAR uni0203
ENCODING 515
SWIDTH 578 0
DWIDTH 6 0
BBX 6 10 0 0
BITMAP
003300
0BFFC0
1F87F2
2EFFE1
CEB8B9
FEA8BC
F7C9BC
FA76CC
EFFFFB
5DFFC3
ENDCHAR
STARTCHAR uni0204
ENCODING 516
SWIDTH 578 0
DWIDTH 6 0
BBX 6 10 0 0
BITMAP
066300
5CCD00
3DBB70
2FFFD1
CF6BE9
FF48EC
FF8FFC
FF57CC
EFFFFB
5DFFC3
ENDCHAR
STARTCHAR uni0205
ENCODING 517
SWIDTH 578 0
DWIDTH 6 0
BBX 6 10 0 0
BITMAP
066300
5CCD00
3DBB70
2FFFE1
C8B8B9
F776CC
F7FFFC
FC77EC
EFFFFB
5DFFC3
ENDCHAR
STARTCHAR uni0206
ENCODING 518
SWIDTH 578 0
DWIDTH 6 0
BBX 6 10 0 0
BITMAP
003300
0BFFC0
1F87F2
2EFFD1
CF6BE9
FF48EC
FF8FFC
FF57CC
EFFFFB
5DFFC3
ENDCHAR
STARTCHAR uni0207
ENCODING 519
SWIDTH 578 0
DWIDTH 6 0
BBX 6 10 0 0
BITMAP
003300
0BFFC0
1F87F2
2EFFE1
C8B8B9
F776CC
F7FFFC
FC77EC
EFFFFB
5DFFC3
ENDCHAR
STARTCHAR uni0208
ENCODING 520
SWIDTH 578 0
DWIDTH 6 0
BBX 6 10 0 0
BITMAP
066300
5CCD00
3DBB70
2FFFC1
CEA6D9
FFE9FC
FFE9FC
FD76BC
EFFFFB
5DFFC3
ENDCHAR
STARTCHAR uni0209
ENCODING 521
SWIDTH 578 0
DWIDTH 6 0
BBX 6 10 0 0
BITMAP
066300
5CCD00
3DBB70
2FFFC1
CEA6D9
FFE9FC
FFE9FC
FD76BC
EFFFFB
5DFFC3
ENDCHAR
STARTCHAR uni020A
ENCODING 522
SWIDTH 578 0
DWIDTH 6 0
BBX 6 10 0 0
BITMAP
003300
0BFFC0
1F87F2
2EFFC1
CEA6D9
FFE9FC
FFE9FC
FD76BC
EFFFFB
5DFFC3
ENDCHAR
STARTCHAR uni020B
ENCODING 523
SWIDTH 578 0
DWIDTH 6 0
BBX 6 10 0 0
BITMAP
003300
0BFFC0
1F87F2
2EFFC1
CEA6D9
FFE9FC
FFE9FC
FD76BC
EFFFFB
5DFFC3
ENDCHAR
STARTCHAR uni020C
ENCODING 524
SWIDTH 578 0
DWIDTH 6 0
BBX 6 10 0 0
BITMAP
066300
5CCD00
3DBB70
2FFFD1
C9AB79
F9EF7C
F9EF7C
FC779C
EFFFFB
5DFFC3
ENDCHAR
STARTCHAR uni020D
ENCODING 525
SWIDTH 578 0
DWIDTH 6 0
BBX 6 10 0 0
BITMAP
066300
5CCD00
3DBB70
2FFFD1
C9AB79
F9EF7C
F9EF7C
FC779C
EFFFFB
5DFFC3
ENDCHAR
STARTCHAR uni020E
ENCODING 526
SWIDTH 578 0
DWIDTH 6 0
BBX 6 10 0 0
BITMAP
003300
0BFFC0
1F87F2
2EFFD1
C9AB79
F9EF7C
F9EF7C
FC779C
EFFFFB
5DFFC3
ENDCHAR
STARTCHAR uni020F
ENCODING 527
SWIDTH 578 0
DWIDTH 6 0
BBX 6 10 0 0
BITMAP
003300
0BFFC0
1F87F2
2EFFD1
C9AB79
F9EF7C
F9EF7C
FC779C
EFFFFB
5DFFC3
ENDCHAR
STARTCHAR uni0210
ENCODING 528
SWIDTH 578 0
DWIDTH 6 0
BBX 6 10 0 0
BITMAP
066300
5CCD00
3DBB70
2FFFE1
CA99A9
FA88CC
FAABAC
FBDEAC
EFFFFB
5DFFC3
ENDCHAR
STARTCHAR uni0211
ENCODING 529
SWIDTH 578 0
DWIDTH 6 0
BBX 6 10 0 0
BITMAP
066300
5CCD00
3DBB70
2FFFE1
CA99A9
FA88CC
FAABAC
FBDEAC
EFFFFB
5DFFC3
ENDCHAR
STARTCHAR uni0212
ENCODING 530
SWIDTH 578 0
DWIDTH 6 0
BBX 6 10 0 0
BITMAP
003300
0BFFC0
1F87F2
2DFFE1
CA99A9
FA88CC
FAABAC
FBDEAC
EFFFFB
5DFFC3
ENDCHAR
STARTCHAR uni0213
ENCODING 531
SWIDTH 578 0
DWIDTH 6 0
BBX 6 10 0 0
BITMAP
003300
0BFFC0
1F87F2
2DFFE1
CA99A9
FA88CC
FAABAC
FBDEAC
EFFFFB
5DFFC3
ENDCHAR
STARTCHAR uni0214
ENCODING 532
SWIDTH 578 0
DWIDTH 6 0
BBX 6 10 0 0
BITMAP
066300
5CCD00
3DBB70
2EFFC1
C8EF79
F8EF7C
F8EF7C
FB77AC
EFFFFB
5DFFC3
ENDCHAR
STARTCHAR uni0215
ENCODING 533
SWIDTH 578 0
DWIDTH 6 0
BBX 6 10 0 0
BITMAP
066300
5CCD00
3DBB70
2EFFC1
C8EF79
F8EF7C
F8EF7C
FB77AC
EFFFFB
5DFFC3
ENDCHAR
STARTCHAR uni0216
ENCODING 534
SWIDTH 578 0
DWIDTH 6 0
BBX 6 10 0 0
BITMAP
003300
0BFFC0
1F87F2
2DFFC1
C8EF79
F8EF7C
F8EF7C
FB77AC
EFFFFB
5DFFC3
ENDCHAR
STARTCHAR uni0217
ENCODING 535
SWIDTH 578 0
DWIDTH 6 0
BBX 6 10 0 0
BITMAP
003300
0BFFC0
1F87F2
2DFFC1
C8EF79
F8EF7C
F8EF7C
FB77AC
EFFFFB
5DFFC3
ENDCHAR
STARTCHAR uni0218
ENCODING 536
SWIDTH 578 0
DWIDTH 6 0
BBX 6 7 0 0
BITMAP
287661
CB8BD9
FC68CC
FFFF7C
FE77AC
EFD9FB
5DFDC3
ENDCHAR
STARTCHAR uni0219
ENCODING 537
SWIDTH 578 0
DWIDTH 6 0
BBX 6 7 0 0
BITMAP
287661
CB8BD9
FC68CC
FFFF7C
FE77AC
EFD9FB
5DFDC3
ENDCHAR
STARTCHAR uni021A
ENCODING 538
SWIDTH 578 0
DWIDTH 6 0
BBX 6 7 0 0
BITMAP
287651
CEA6D9
FFE9FC
FFE9FC
FFEAFC
EFD9FB
5DFDC3
ENDCHAR
STARTCHAR uni021B
ENCODING 539
SWIDTH 578 0
DWIDTH 6 0
BBX 6 7 0 0
BITMAP
287651
CEA6D9
FFE9FC
FFE9FC
FFEAFC
EFD9FB
5DFDC3
ENDCHAR
STARTCHAR circumflex
ENCODING 710
SWIDTH 355 0
DWIDTH 4 0
BBX 4 4 0 0
BITMAP
1750
7BD1
DAA7
BCC6
ENDCHAR
STARTCHAR caron
ENCODING 711
SWIDTH 355 0
DWIDTH 4 0
BBX 4 4 0 0
BITMAP
2231
EDD8
D9B6
7AC2
ENDCHAR
STARTCHAR breve
ENCODING 728
SWIDTH 428 0
DWIDTH 4 0
BBX 5 3 0 0
BITMAP
5CD800
ECBF30
ACBD10
ENDCHAR
STARTCHAR dotaccent
ENCODING 729
SWIDTH 428 0
DWIDTH 4 0
BBX 5 3 0 0
BITMAP
5CD800
EDBF30
BDDD10
ENDCHAR
STARTCHAR ring
ENCODING 730
SWIDTH 368 0
DWIDTH 4 0
BBX 4 4 0 0
BITMAP
0100
7DD3
E78A
DBD8
ENDCHAR
STARTCHAR ogonek
ENCODING 731
SWIDTH 101 0
DWIDTH 1 0
BBX 1 2 0 -2
BITMAP
70
60
ENDCHAR
STARTCHAR tilde
ENCODING 732
SWIDTH 428 0
DWIDTH 4 0
BBX 5 4 0 0
BITMAP
012000
8FFB00
EBCE40
BBAE10
ENDCHAR
STARTCHAR hungarumlaut
ENCODING 733
SWIDTH 419 0
DWIDTH 4 0
BBX 5 4 0 0
BITMAP
056400
4DDC10
CAAC00
BCB300
ENDCHAR
STARTCHAR uni030F
ENCODING 783
SWIDTH 419 0
DWIDTH 4 0
BBX 5 4 0 0
BITMAP
366000
BCC700
AABE10
1BCB20
ENDCHAR
STARTCHAR mu
ENCODING 956
SWIDTH 578 0
DWIDTH 6 0
BBX 6 7 0 0
BITMAP
27AA51
C8EF79
F8EF7C
F8EF7C
F877AC
EEFFFB
5DFFC3
ENDCHAR
STARTCHAR pi
ENCODING 960
SWIDTH 578 0
DWIDTH 6 0
BBX 6 7 0 0
BITMAP
288871
C97799
CD99D9
CC87D8
F8CC8C
EFBBFB
5DFFC3
ENDCHAR
STARTCHAR uni1E60
ENCODING 7776
SWIDTH 578 0
DWIDTH 6 0
BBX 6 9 0 0
BITMAP
05CD90
0EEBF4
2FFFF3
CB8BD9
FC68CC
FFFF7C
FE77AC
EFFFFB
5DFFC3
ENDCHAR
STARTCHAR uni1E8E
ENCODING 7822
SWIDTH 578 0
DWIDTH 6 0
BBX 6 9 0 0
BITMAP
05CD80
0FDBF3
2FFFF2
CE7AB9
FF76FC
FFC8FC
FFDBFC
EFFFFB
5DFFC3
ENDCHAR
STARTCHAR uni1E8F
ENCODING 7823
SWIDTH 578 0
DWIDTH 6 0
BBX 6 9 0 0
BITMAP
05CD80
0FDBF3
2FFFF2
CE7AB9
FF76FC
FFC8FC
FFDBFC
EFFFFB
5DFFC3
ENDCHAR
STARTCHAR uni1EBC
ENCODING 7868
SWIDTH 578 0
DWIDTH 6 0
BBX 6 10 0 0
BITMAP
001200
08FFB0
0EBCE4
2FFFF2
CF6BE9
FF48EC
FF8FFC
FF57CC
EFFFFB
5DFFC3
ENDCHAR
STARTCHAR uni1EF8
ENCODING 7928
SWIDTH 578 0
DWIDTH 6 0
BBX 6 10 0 0
BITMAP
002200
08FFB0
0FBCE3
2FFFF2
CE7AB9
FF76FC
FFC8FC
FFDBFC
EFFFFB
5DFFC3
ENDCHAR
STARTCHAR uni1EF9
ENCODING 7929
SWIDTH 578 0
DWIDTH 6 0
BBX 6 10 0 0
BITMAP
002200
08FFB0
0FBCE3
2FFFF2
CE7AB9
FF76FC
FFC8FC
FFDBFC
EFFFFB
5DFFC3
ENDCHAR
STARTCHAR endash
ENCODING 8211
SWIDTH 428 0
DWIDTH 4 0
BBX 5 7 0 0
BITMAP
289400
CFFF20
F97F40
FFFF40
FFFF40
EFFF30
5DE800
ENDCHAR
STARTCHAR emdash
ENCODING 8212
SWIDTH 428 0
DWIDTH 4 0
BBX 5 7 0 0
BITMAP
299400
CFFE20
777720
FFFF40
FFFF40
EFFF30
5DE800
ENDCHAR
STARTCHAR quoteleft
ENCODING 8216
SWIDTH 428 0
DWIDTH 4 0
BBX 5 7 0 0
BITMAP
288400
CD8F20
FFFF40
FFFF40
FFFF40
EFFF30
5DE800
ENDCHAR
STARTCHAR quoteright
ENCODING 8217
SWIDTH 428 0
DWIDTH 4 0
BBX 5 7 0 0
BITMAP
287400
CE9F20
FFFF40
FFFF40
FFFF40
EFFF30
5DE800
ENDCHAR
STARTCHAR quotesinglbase
ENCODING 8218
SWIDTH 428 0
DWIDTH 4 0
BBX 5 7 0 0
BITMAP
289400
CFFF20
FFFF40
FFFF40
FD8F40
EFDF30
5DE800
ENDCHAR
STARTCHAR quotedblleft
ENCODING 8220
SWIDTH 428 0
DWIDTH 4 0
BBX 5 7 0 0
BITMAP
278400
C65F20
FFFF40
FFFF40
FFFF40
EFFF30
5DE800
ENDCHAR
STARTCHAR quotedblright
ENCODING 8221
SWIDTH 428 0
DWIDTH 4 0
BBX 5 7 0 0
BITMAP
266400
C97E20
FFFF40
FFFF40
FFFF40
EFFF30
5DE800
ENDCHAR
STARTCHAR quotedblbase
ENCODING 8222
SWIDTH 428 0
DWIDTH 4 0
BBX 5 7 0 0
BITMAP
289400
CFFF20
FFFF40
FFFF40
F95E40
EDDF30
5DE800
ENDCHAR
STARTCHAR dagger
ENCODING 8224
SWIDTH 578 0
DWIDTH 6 0
BBX 6 7 0 0
BITMAP
28A971
CF95E9
FFD8FC
FFE9FC
FFEAFC
EFFFFB
5DFFC3
ENDCHAR
STARTCHAR daggerdbl
ENCODING 8225
SWIDTH 578 0
DWIDTH 6 0
BBX 6 7 0 0
BITMAP
28A971
CF95E9
FFD8FC
FF95FC
FFD9FC
EFFFFB
5DFFC3
ENDCHAR
STARTCHAR bullet
ENCODING 8226
SWIDTH 578 0
DWIDTH 6 0
BBX 6 7 0 0
BITMAP
28AA71
CD43C9
F9007C
F9007C
FE76DC
EFFFFB
5DFFC3
ENDCHAR
STARTCHAR ellipsis
ENCODING 8230
SWIDTH 578 0
DWIDTH 6 0
BBX 6 7 0 0
BITMAP
28AA71
CFFFF9
FFFFFC
FFFFFC
F9ABCC
EFFFFB
5DFFC3
ENDCHAR
STARTCHAR perthousand
ENCODING 8240
SWIDTH 640 0
DWIDTH 6 0
BBX 7 7 0 0
BITMAP
28AAA500
558FFF30
B87FFF60
FD656540
FCC7B750
EFFFFF50
5DFFEA00
ENDCHAR
STARTCHAR guilsinglleft
ENCODING 8249
SWIDTH 578 0
DWIDTH 6 0
BBX 6 7 0 0
BITMAP
28AA71
CFF9F9
FFACFC
FF8EFC
FFF8FC
EFFFFB
5DFFC3
ENDCHAR
STARTCHAR guilsinglright
ENCODING 8250
SWIDTH 578 0
DWIDTH 6 0
BBX 6 7 0 0
BITMAP
28AA71
CFAFF9
FFE9FC
FFF8FC
FF9EFC
EFFFFB
5DFFC3
ENDCHAR
STARTCHAR fraction
ENCODING 8260
SWIDTH 428 0
DWIDTH 4 0
BBX 5 7 0 0
BITMAP
287400
CF7F20
FE8F40
FBBF40
FADF40
EFFF30
5DE800
ENDCHAR
STARTCHAR Euro
ENCODING 8364
SWIDTH 578 0
DWIDTH 6 0
BBX 6 7 0 0
BITMAP
287771
C8ABF9
F47DFC
F58EFC
FB77EC
EFFFFB
5DFFC3
ENDCHAR
STARTCHAR trademark
ENCODING 8482
SWIDTH 578 0
DWIDTH 6 0
BBX 6 7 0 0
BITMAP
28AA71
CFFFF9
FB9ADC
FCA6CC
FFFFFC
EFFFFB
5DFFC3
ENDCHAR
STARTCHAR product
ENCODING 8719
SWIDTH 578 0
DWIDTH 6 0
BBX 6 7 0 0
BITMAP
288871
C99899
CD9BB9
CD79D8
F9BE9C
EFBBFB
5DFFC3
ENDCHAR
STARTCHAR minus
ENCODING 8722
SWIDTH 428 0
DWIDTH 4 0
BBX 5 7 0 0
BITMAP
289400
CFFF20
F97F40
FFFF40
FFFF40
EFFF30
5DE800
ENDCHAR
STARTCHAR notequal
ENCODING 8800
SWIDTH 578 0
DWIDTH 6 0
BBX 6 7 0 0
BITMAP
28AA71
CDB6E9
FB45DC
FD7CEC
FFFFFC
EFFFFB
5DFFC3
ENDCHAR
STARTCHAR uni2706
ENCODING 9990
SWIDTH 578 0
DWIDTH 6 0
BBX 6 7 0 0
BITMAP
28A971
CFC8F9
FB7CEC
FC7FFC
FF75EC
EFFEFB
5DFFC3
ENDCHAR
STARTCHAR uni2708
ENCODING 9992
SWIDTH 578 0
DWIDTH 6 0
BBX 6 7 0 0
BITMAP
134431
304403
349933
305503
302203
304303
335532
ENDCHAR
STARTCHAR uniF6D6
ENCODING 63190
SWIDTH 419 0
DWIDTH 4 0
BBX 5 4 0 0
BITMAP
366000
BCC700
AABE10
1BCB20
ENDCHAR
STARTCHAR uFFFF2
ENCODING 1048562
SWIDTH 578 0
DWIDTH 6 0
BBX 6 7 0 0
BITMAP
133331
303303
309803
345543
305503
304303
335532
ENDCHAR
STARTCHAR uFFFF3
ENCODING 1048563
SWIDTH 578 0
DWIDTH 6 0
BBX 6 7 0 0
BITMAP
133331
302903
309B13
308B13
303A13
300103
333332
ENDCHAR
STARTCHAR uFFFF4
ENCODING 1048564
SWIDTH 578 0
DWIDTH 6 0
BBX 6 7 0 0
BITMAP
28AA71
CFCBF9
FACBAC
FAEEAC
FF99EC
EFFFFB
5DFFC3
ENDCHAR
STARTCHAR uFFFF5
ENCODING 1048565
SWIDTH 578 0
DWIDTH 6 0
BBX 6 7 0 0
BITMAP
289971
CFBBF9
FB66CC
FFAAFC
FFDDFC
EFBCFB
5DDDC3
ENDCHAR
STARTCHAR uFFFF6
ENCODING 1048566
SWIDTH 578 0
DWIDTH 6 0
BBX 6 7 0 0
BITMAP
28AA71
CFCCF9
FF67FC
FB9ABC
FFABFC
EFBCFB
5DDDC3
ENDCHAR
STARTCHAR uFFFF8
ENCODING 1048568
SWIDTH 578 0
DWIDTH 6 0
BBX 6 7 0 0
BITMAP
28AA71
CF9AF9
FD44EC
F955AC
FC01DC
EFABFB
5DDDC3
ENDCHAR
STARTCHAR uFFFF9
ENCODING 1048569
SWIDTH 578 0
DWIDTH 6 0
BBX 6 7 0 0
BITMAP
133331
303403
353453
351153
306613
300003
333332
ENDCHAR
STARTCHAR uFFFFB
ENCODING 1048571
SWIDTH 578 0
DWIDTH 6 0
BBX 6 7 0 0
BITMAP
289A71
CE97F9
FE57FC
FD56FC
FFB8FC
EFFFFB
5DFFC3
ENDCHAR
STARTCHAR uFFFFC
ENCODING 1048572
SWIDTH 578 0
DWIDTH 6 0
BBX 6 7 0 0
BITMAP
28AA71
C86689
FA55AC
FFAAFC
FFEEFC
EFFFFB
5DFFC3
ENDCHAR
STARTCHAR uFFFFD
ENCODING 1048573
SWIDTH 578 0
DWIDTH 6 0
BBX 6 7 0 0
BITMAP
28AA71
CD23E9
F933AC
FC55EC
FF78FC
EFBCFB
5DDDC3
ENDCHAR
STARTCHAR uFFFFE
ENCODING 1048574
SWIDTH 578 0
DWIDTH 6 0
BBX 6 7 0 0
BITMAP
28AA71
C78879
F6799C
F7777C
FEEEEC
EFFFFB
5DFFC3
ENDCHAR
STARTCHAR uFFFFF
ENCODING 1048575
SWIDTH 578 0
DWIDTH 6 0
BBX 6 7 0 0
BITMAP
133331
32DC13
36CC53
33AA13
308703
304303
336532
ENDCHAR
STARTCHAR .notdef
ENCODING -1
SWIDTH 1000 0
DWIDTH 10 0
BBX 1 1 0 0
BITMAP
00
ENDCHAR
STARTCHAR glyph1
ENCODING -1
SWIDTH 0 0
DWIDTH 0 0
BBX 1 1 0 0
BITMAP
00
ENDCHAR
ENDFONT
